<svg width="814" height="624" viewBox="0 0 814 624" fill="none" xmlns="http://www.w3.org/2000/svg">
  <path d="M813.449 548.362H-24V548.78H813.449V548.362Z" fill="#EBEBEB"/>
  <path d="M514.513 571.71H459.041V572.128H514.513V571.71Z" fill="#EBEBEB"/>
  <path d="M672.372 567.171H657.817V567.589H672.372V567.171Z" fill="#EBEBEB"/>
  <path d="M640.248 559.768H524.814V560.186H640.248V559.768Z" fill="#EBEBEB"/>
  <path d="M353.087 569.65H302.337V570.068H353.087V569.65Z" fill="#EBEBEB"/>
  <path d="M287.431 569.65H255.239V570.068H287.431V569.65Z" fill="#EBEBEB"/>
  <path d="M142.317 562.581H63.8651V563H142.317V562.581Z" fill="#EBEBEB"/>
  <path d="M372.951 473.661H49.5447C47.0112 473.657 44.5829 472.647 42.793 470.854C41.0031 469.061 39.9978 466.631 39.9978 464.098V9.47992C40.0199 6.96092 41.0349 4.55234 42.8224 2.77735C44.61 1.00236 47.0256 0.00431519 49.5447 0H372.951C375.487 0 377.92 1.0076 379.713 2.80113C381.507 4.59467 382.514 7.02722 382.514 9.56367V464.098C382.514 466.634 381.507 469.067 379.713 470.86C377.92 472.654 375.487 473.661 372.951 473.661ZM49.5447 0.334981C47.1222 0.339418 44.8005 1.30485 43.0891 3.01938C41.3777 4.73391 40.4165 7.05743 40.4165 9.47992V464.098C40.4165 466.52 41.3777 468.844 43.0891 470.558C44.8005 472.273 47.1222 473.238 49.5447 473.242H372.951C375.375 473.238 377.698 472.273 379.412 470.559C381.126 468.845 382.091 466.522 382.096 464.098V9.47992C382.091 7.05589 381.126 4.73241 379.412 3.01836C377.698 1.30431 375.375 0.339408 372.951 0.334981H49.5447Z" fill="#EBEBEB"/>
  <path d="M735.248 473.661H411.825C409.29 473.657 406.86 472.648 405.068 470.855C403.275 469.063 402.266 466.633 402.261 464.098V9.47992C402.288 6.95939 403.307 4.55083 405.097 2.7763C406.887 1.00177 409.304 0.00426813 411.825 0H735.248C737.764 0.008717 740.176 1.00871 741.959 2.78322C743.743 4.55774 744.756 6.96381 744.778 9.47992V464.098C744.778 466.628 743.775 469.056 741.989 470.848C740.203 472.641 737.779 473.652 735.248 473.661ZM411.825 0.334981C409.401 0.339408 407.078 1.30431 405.364 3.01836C403.65 4.73241 402.685 7.05589 402.68 9.47992V464.098C402.685 466.522 403.65 468.845 405.364 470.559C407.078 472.273 409.401 473.238 411.825 473.242H735.248C737.672 473.238 739.995 472.273 741.71 470.559C743.424 468.845 744.388 466.522 744.393 464.098V9.47992C744.388 7.05589 743.424 4.73241 741.71 3.01836C739.995 1.30431 737.672 0.339408 735.248 0.334981H411.825Z" fill="#EBEBEB"/>
  <path d="M710.744 191.123C710.74 189.294 710.011 187.541 708.718 186.248C707.425 184.955 705.672 184.226 703.844 184.222H488.887C487.058 184.226 485.306 184.955 484.013 186.248C482.72 187.541 481.991 189.294 481.987 191.123V213.332H710.744V191.123Z" fill="#E6E6E6"/>
  <path d="M660.162 198.777C660.166 199.812 659.862 200.824 659.289 201.686C658.716 202.548 657.9 203.221 656.944 203.618C655.989 204.016 654.937 204.121 653.921 203.92C652.906 203.719 651.973 203.221 651.242 202.489C650.51 201.757 650.012 200.824 649.811 199.809C649.609 198.794 649.714 197.742 650.112 196.786C650.51 195.831 651.182 195.015 652.044 194.442C652.906 193.869 653.918 193.565 654.953 193.568C656.334 193.572 657.656 194.123 658.632 195.098C659.608 196.074 660.158 197.397 660.162 198.777Z" fill="white"/>
  <path d="M678.653 198.777C678.656 199.811 678.353 200.823 677.781 201.685C677.208 202.546 676.394 203.219 675.439 203.617C674.484 204.015 673.433 204.121 672.418 203.921C671.404 203.721 670.471 203.225 669.738 202.495C669.006 201.765 668.506 200.833 668.303 199.819C668.1 198.805 668.203 197.754 668.598 196.798C668.993 195.842 669.663 195.025 670.523 194.45C671.382 193.875 672.393 193.568 673.427 193.568C674.811 193.568 676.137 194.116 677.117 195.093C678.096 196.069 678.649 197.394 678.653 198.777Z" fill="white"/>
  <path d="M691.918 204.003C694.804 204.003 697.144 201.663 697.144 198.777C697.144 195.891 694.804 193.551 691.918 193.551C689.032 193.551 686.693 195.891 686.693 198.777C686.693 201.663 689.032 204.003 691.918 204.003Z" fill="white"/>
  <path d="M488.887 362.934H703.844C705.672 362.929 707.425 362.201 708.718 360.908C710.011 359.614 710.74 357.862 710.744 356.033V213.332H481.987V356.033C481.991 357.862 482.72 359.614 484.013 360.908C485.306 362.201 487.058 362.929 488.887 362.934Z" fill="#F0F0F0"/>
  <path d="M728.197 243.363C728.192 241.534 727.464 239.781 726.171 238.488C724.877 237.195 723.125 236.467 721.296 236.462H506.34C504.511 236.467 502.758 237.195 501.465 238.488C500.172 239.781 499.444 241.534 499.439 243.363V265.572H728.197V243.363Z" fill="#F0F0F0"/>
  <path d="M677.631 251.017C677.631 252.05 677.325 253.061 676.751 253.92C676.177 254.78 675.36 255.449 674.406 255.845C673.451 256.24 672.4 256.344 671.386 256.142C670.373 255.941 669.442 255.443 668.711 254.712C667.98 253.981 667.482 253.05 667.281 252.036C667.079 251.023 667.182 249.972 667.578 249.017C667.973 248.062 668.643 247.246 669.503 246.672C670.362 246.098 671.372 245.791 672.406 245.791C673.792 245.791 675.121 246.342 676.101 247.322C677.081 248.302 677.631 249.631 677.631 251.017Z" fill="#E6E6E6"/>
  <path d="M696.106 251.017C696.106 252.051 695.799 253.062 695.224 253.922C694.649 254.782 693.832 255.451 692.876 255.846C691.92 256.241 690.868 256.344 689.854 256.141C688.84 255.938 687.909 255.439 687.179 254.706C686.449 253.974 685.952 253.041 685.753 252.026C685.553 251.011 685.659 249.96 686.057 249.006C686.455 248.051 687.127 247.236 687.989 246.664C688.85 246.092 689.862 245.788 690.897 245.791C692.28 245.796 693.605 246.348 694.581 247.328C695.557 248.307 696.106 249.634 696.106 251.017Z" fill="#E6E6E6"/>
  <path d="M714.63 251.017C714.63 252.051 714.323 253.062 713.748 253.922C713.173 254.782 712.356 255.451 711.4 255.846C710.444 256.241 709.393 256.344 708.379 256.141C707.365 255.938 706.433 255.439 705.703 254.706C704.973 253.974 704.477 253.041 704.277 252.026C704.077 251.011 704.183 249.96 704.581 249.006C704.979 248.051 705.652 247.236 706.513 246.664C707.375 246.092 708.387 245.788 709.421 245.791C710.804 245.796 712.129 246.348 713.105 247.328C714.082 248.307 714.63 249.634 714.63 251.017Z" fill="#E6E6E6"/>
  <path d="M506.34 415.174H721.33C723.158 415.169 724.911 414.441 726.204 413.148C727.497 411.855 728.226 410.102 728.23 408.273V265.572H499.439V408.273C499.444 410.102 500.172 411.855 501.465 413.148C502.758 414.441 504.511 415.169 506.34 415.174Z" fill="#FAFAFA"/>
  <path d="M59.1755 30.8348C59.1844 29.1022 59.8777 27.4434 61.1044 26.2198C62.3311 24.9962 63.9918 24.3071 65.7244 24.3027H347.827C349.56 24.3071 351.221 24.9962 352.447 26.2198C353.674 27.4434 354.367 29.1022 354.376 30.8348V51.9218H59.1755V30.8348Z" fill="#E0E0E0"/>
  <path d="M112.102 43.5473C111.039 43.5473 109.999 43.232 109.115 42.6412C108.231 42.0504 107.542 41.2107 107.135 40.2283C106.728 39.2459 106.622 38.1649 106.829 37.122C107.036 36.079 107.549 35.1211 108.3 34.3692C109.052 33.6172 110.01 33.1052 111.053 32.8977C112.096 32.6903 113.177 32.7968 114.16 33.2037C115.142 33.6106 115.982 34.2997 116.572 35.1839C117.163 36.068 117.479 37.1075 117.479 38.1709C117.479 39.5968 116.912 40.9643 115.904 41.9726C114.896 42.9808 113.528 43.5473 112.102 43.5473ZM112.102 33.6486C111.208 33.6486 110.333 33.9139 109.59 34.4108C108.846 34.9077 108.266 35.6139 107.924 36.4403C107.582 37.2666 107.492 38.1759 107.667 39.0531C107.841 39.9303 108.272 40.7361 108.904 41.3686C109.537 42.001 110.343 42.4317 111.22 42.6062C112.097 42.7807 113.006 42.6911 113.833 42.3489C114.659 42.0066 115.365 41.4269 115.862 40.6833C116.359 39.9396 116.624 39.0653 116.624 38.1709C116.633 37.5714 116.523 36.9761 116.3 36.4197C116.076 35.8633 115.745 35.3568 115.324 34.9298C114.903 34.5027 114.401 34.1636 113.848 33.9322C113.295 33.7007 112.702 33.5816 112.102 33.5816V33.6486Z" fill="white"/>
  <path d="M94.5661 43.5473C93.5056 43.5472 92.4688 43.2335 91.5862 42.6456C90.7035 42.0578 90.0145 41.222 89.6056 40.2435C89.1968 39.265 89.0865 38.1874 89.2886 37.1464C89.4907 36.1053 89.9961 35.1473 90.7413 34.3928C91.4865 33.6383 92.4382 33.121 93.4767 32.906C94.5152 32.6911 95.594 32.788 96.5775 33.1847C97.561 33.5814 98.4053 34.2601 99.004 35.1354C99.6028 36.0106 99.9293 37.0435 99.9425 38.1039C99.9514 38.8155 99.8188 39.5219 99.5526 40.1819C99.2864 40.842 98.8918 41.4426 98.3917 41.949C97.8915 42.4553 97.2958 42.8573 96.6391 43.1317C95.9824 43.4061 95.2778 43.5473 94.5661 43.5473ZM94.5661 33.6486C93.6717 33.6486 92.7973 33.9139 92.0537 34.4108C91.31 34.9077 90.7304 35.6139 90.3881 36.4403C90.0458 37.2666 89.9562 38.1759 90.1307 39.0531C90.3052 39.9303 90.7359 40.7361 91.3684 41.3686C92.0008 42.001 92.8066 42.4317 93.6838 42.6062C94.5611 42.7807 95.4703 42.6911 96.2966 42.3489C97.123 42.0066 97.8292 41.427 98.3262 40.6833C98.8231 39.9396 99.0883 39.0653 99.0883 38.1709C99.0972 37.5714 98.9868 36.9761 98.7635 36.4197C98.5402 35.8633 98.2085 35.3568 97.7877 34.9298C97.3669 34.5027 96.8653 34.1636 96.3123 33.9322C95.7592 33.7007 95.1656 33.5816 94.5661 33.5816V33.6486Z" fill="white"/>
  <path d="M77.0299 43.5473C75.9665 43.5473 74.927 43.232 74.0429 42.6412C73.1587 42.0504 72.4696 41.2107 72.0627 40.2283C71.6558 39.2459 71.5493 38.1649 71.7568 37.122C71.9642 36.079 72.4763 35.1211 73.2282 34.3692C73.9801 33.6172 74.9381 33.1052 75.981 32.8977C77.0239 32.6903 78.1049 32.7968 79.0873 33.2037C80.0697 33.6106 80.9094 34.2997 81.5002 35.1839C82.091 36.068 82.4063 37.1075 82.4063 38.1709C82.4063 39.5968 81.8398 40.9643 80.8316 41.9726C79.8233 42.9808 78.4558 43.5473 77.0299 43.5473ZM77.0299 33.6486C76.1355 33.6486 75.2611 33.9139 74.5175 34.4108C73.7738 34.9077 73.1941 35.6139 72.8519 36.4403C72.5096 37.2666 72.42 38.1759 72.5945 39.0531C72.769 39.9303 73.1997 40.7361 73.8322 41.3686C74.4646 42.001 75.2704 42.4317 76.1476 42.6062C77.0248 42.7807 77.9341 42.6911 78.7604 42.3489C79.5868 42.0066 80.293 41.4269 80.79 40.6833C81.2869 39.9396 81.5521 39.0653 81.5521 38.1709C81.561 37.5714 81.4506 36.9761 81.2273 36.4197C81.004 35.8633 80.6723 35.3568 80.2515 34.9298C79.8307 34.5027 79.3291 34.1636 78.7761 33.9322C78.223 33.7007 77.6294 33.5816 77.0299 33.5816V33.6486Z" fill="white"/>
  <path d="M65.7244 227.049H347.827C349.563 227.045 351.226 226.353 352.453 225.126C353.681 223.899 354.372 222.236 354.376 220.5V51.9218H59.1755V220.5C59.18 222.236 59.8713 223.899 61.0985 225.126C62.3257 226.353 63.9889 227.045 65.7244 227.049Z" fill="#EBEBEB"/>
  <path d="M129.94 75.0522C129.949 73.3196 130.642 71.6607 131.869 70.4371C133.096 69.2136 134.756 68.5245 136.489 68.5201H418.542C420.274 68.5245 421.935 69.2136 423.162 70.4371C424.388 71.6607 425.082 73.3196 425.09 75.0522V96.1224H129.94V75.0522Z" fill="#FAFAFA"/>
  <path d="M182.867 87.6977C181.803 87.6977 180.764 87.3823 179.88 86.7916C178.996 86.2008 178.306 85.3611 177.899 84.3787C177.493 83.3963 177.386 82.3153 177.594 81.2724C177.801 80.2294 178.313 79.2715 179.065 78.5195C179.817 77.7676 180.775 77.2556 181.818 77.0481C182.861 76.8407 183.942 76.9472 184.924 77.3541C185.907 77.761 186.746 78.4501 187.337 79.3343C187.928 80.2184 188.243 81.2579 188.243 82.3213C188.243 83.7472 187.677 85.1147 186.668 86.123C185.66 87.1312 184.293 87.6977 182.867 87.6977ZM182.867 77.799C181.972 77.799 181.098 78.0642 180.354 78.5612C179.611 79.0581 179.031 79.7643 178.689 80.5907C178.346 81.417 178.257 82.3263 178.431 83.2035C178.606 84.0807 179.037 84.8865 179.669 85.5189C180.301 86.1514 181.107 86.5821 181.984 86.7566C182.862 86.9311 183.771 86.8415 184.597 86.4992C185.424 86.157 186.13 85.5773 186.627 84.8337C187.124 84.09 187.389 83.2157 187.389 82.3213C187.389 81.1219 186.912 79.9716 186.064 79.1236C185.216 78.2755 184.066 77.799 182.867 77.799Z" fill="#E6E6E6"/>
  <path d="M165.264 87.6977C164.2 87.6977 163.161 87.3823 162.277 86.7916C161.392 86.2008 160.703 85.3611 160.296 84.3787C159.889 83.3963 159.783 82.3153 159.99 81.2724C160.198 80.2294 160.71 79.2715 161.462 78.5195C162.214 77.7676 163.172 77.2556 164.215 77.0481C165.258 76.8407 166.339 76.9472 167.321 77.3541C168.303 77.761 169.143 78.4501 169.734 79.3343C170.325 80.2184 170.64 81.2579 170.64 82.3213C170.64 83.7472 170.073 85.1147 169.065 86.123C168.057 87.1312 166.689 87.6977 165.264 87.6977ZM165.264 77.799C164.369 77.799 163.495 78.0642 162.751 78.5612C162.007 79.0581 161.428 79.7643 161.086 80.5907C160.743 81.417 160.654 82.3263 160.828 83.2035C161.003 84.0807 161.433 84.8865 162.066 85.5189C162.698 86.1514 163.504 86.5821 164.381 86.7566C165.259 86.9311 166.168 86.8415 166.994 86.4992C167.82 86.157 168.527 85.5773 169.024 84.8337C169.521 84.09 169.786 83.2157 169.786 82.3213C169.786 81.1219 169.309 79.9716 168.461 79.1236C167.613 78.2755 166.463 77.799 165.264 77.799Z" fill="#E6E6E6"/>
  <path d="M147.794 87.6977C146.731 87.6977 145.691 87.3823 144.807 86.7916C143.923 86.2008 143.234 85.3611 142.827 84.3787C142.42 83.3963 142.314 82.3153 142.521 81.2724C142.729 80.2294 143.241 79.2715 143.993 78.5195C144.744 77.7676 145.702 77.2556 146.745 77.0481C147.788 76.8407 148.869 76.9472 149.852 77.3541C150.834 77.761 151.674 78.4501 152.265 79.3343C152.855 80.2184 153.171 81.2579 153.171 82.3213C153.171 83.7472 152.604 85.1147 151.596 86.123C150.588 87.1312 149.22 87.6977 147.794 87.6977ZM147.794 77.799C146.9 77.799 146.026 78.0642 145.282 78.5612C144.538 79.0581 143.959 79.7643 143.616 80.5907C143.274 81.417 143.184 82.3263 143.359 83.2035C143.533 84.0807 143.964 84.8865 144.597 85.5189C145.229 86.1514 146.035 86.5821 146.912 86.7566C147.789 86.9311 148.699 86.8415 149.525 86.4992C150.351 86.157 151.057 85.5773 151.554 84.8337C152.051 84.09 152.316 83.2157 152.316 82.3213C152.316 81.1219 151.84 79.9716 150.992 79.1236C150.144 78.2755 148.994 77.799 147.794 77.799Z" fill="#E6E6E6"/>
  <path d="M136.489 304.513H418.542C420.277 304.509 421.94 303.817 423.167 302.59C424.395 301.363 425.086 299.7 425.09 297.964V96.1224H129.94V297.964C129.944 299.7 130.636 301.363 131.863 302.59C133.09 303.817 134.753 304.509 136.489 304.513Z" fill="#F5F5F5"/>
  <path d="M560.707 111.029H461.218C460.015 111.029 459.041 112.004 459.041 113.206V129.537C459.041 130.739 460.015 131.714 461.218 131.714H560.707C561.909 131.714 562.884 130.739 562.884 129.537V113.206C562.884 112.004 561.909 111.029 560.707 111.029Z" fill="#E6E6E6"/>
  <path d="M634.637 75.9566L461.218 77.0453C460.641 77.0453 460.087 77.2747 459.678 77.683C459.27 78.0914 459.041 78.6452 459.041 79.2227V95.5697C459.049 96.1458 459.284 96.6953 459.695 97.0995C460.105 97.5038 460.659 97.7304 461.235 97.7303L634.654 96.6416C635.228 96.6372 635.778 96.4058 636.182 95.998C636.587 95.5901 636.814 95.0388 636.814 94.4642V78.1172C636.814 77.8321 636.758 77.5497 636.648 77.2865C636.539 77.0233 636.378 76.7843 636.176 76.5835C635.973 76.3826 635.733 76.2238 635.469 76.1162C635.205 76.0087 634.922 75.9544 634.637 75.9566Z" fill="#F0F0F0"/>
  <path d="M596.617 41.9562H461.218C460.015 41.9562 459.041 42.931 459.041 44.1335V60.4638C459.041 61.6663 460.015 62.6412 461.218 62.6412H596.617C597.819 62.6412 598.794 61.6663 598.794 60.4638V44.1335C598.794 42.931 597.819 41.9562 596.617 41.9562Z" fill="#F0F0F0"/>
  <path d="M113.375 377.036H78.889C78.3063 377.036 77.8339 377.509 77.8339 378.091V389.715C77.8339 390.298 78.3063 390.77 78.889 390.77H113.375C113.958 390.77 114.43 390.298 114.43 389.715V378.091C114.43 377.509 113.958 377.036 113.375 377.036Z" fill="#E6E6E6"/>
  <path d="M139.721 354.358L78.6043 355.078C78.1688 355.078 77.8339 355.732 77.8339 356.519V367.372C77.8339 368.159 78.1856 368.813 78.6043 368.813L139.738 368.076C140.157 368.076 140.509 367.422 140.509 366.635V355.782C140.492 355.078 140.14 354.358 139.721 354.358Z" fill="#F0F0F0"/>
  <path d="M126.037 332.417H78.889C78.3063 332.417 77.8339 332.889 77.8339 333.472V345.096C77.8339 345.679 78.3063 346.151 78.889 346.151H126.037C126.62 346.151 127.093 345.679 127.093 345.096V333.472C127.093 332.889 126.62 332.417 126.037 332.417Z" fill="#F0F0F0"/>
  <path d="M139.721 421.304L78.6043 422.074C78.1688 422.074 77.8339 422.727 77.8339 423.515V434.368C77.8339 435.155 78.1856 435.808 78.6043 435.808L139.738 435.072C140.157 435.072 140.509 434.418 140.509 433.631V422.778C140.492 421.957 140.14 421.304 139.721 421.304Z" fill="#F0F0F0"/>
  <path d="M126.037 399.363H78.889C78.3063 399.363 77.8339 399.835 77.8339 400.418V412.042C77.8339 412.624 78.3063 413.097 78.889 413.097H126.037C126.62 413.097 127.093 412.624 127.093 412.042V400.418C127.093 399.835 126.62 399.363 126.037 399.363Z" fill="#F0F0F0"/>
  <path d="M394.724 624C574.077 624 719.471 615.511 719.471 605.04C719.471 594.569 574.077 586.08 394.724 586.08C215.372 586.08 69.9785 594.569 69.9785 605.04C69.9785 615.511 215.372 624 394.724 624Z" fill="#F5F5F5"/>
  <path d="M711.95 47.0814H395.629V361.828H711.95V47.0814Z" fill="#407BFF"/>
  <path opacity="0.1" d="M498.886 62.7416H395.629V121.983H498.886V62.7416Z" fill="black"/>
  <path opacity="0.2" d="M498.886 181.224H395.629V240.465H498.886V181.224Z" fill="black"/>
  <path opacity="0.1" d="M498.886 240.465H395.629V299.706H498.886V240.465Z" fill="black"/>
  <path d="M498.886 62.7416H706.708V350.054C706.708 352.088 705.9 354.039 704.461 355.478C703.022 356.917 701.071 357.725 699.037 357.725H506.557C504.523 357.725 502.572 356.917 501.133 355.478C499.695 354.039 498.886 352.088 498.886 350.054V62.7416Z" fill="white"/>
  <path opacity="0.3" d="M711.95 47.0814H395.629V62.7417H711.95V47.0814Z" fill="black"/>
  <path opacity="0.8" d="M407.956 58.1022C409.714 58.1022 411.139 56.6775 411.139 54.9199C411.139 53.1624 409.714 51.7376 407.956 51.7376C406.199 51.7376 404.774 53.1624 404.774 54.9199C404.774 56.6775 406.199 58.1022 407.956 58.1022Z" fill="#407BFF"/>
  <path opacity="0.8" d="M422.478 58.1022C424.235 58.1022 425.66 56.6775 425.66 54.9199C425.66 53.1624 424.235 51.7376 422.478 51.7376C420.72 51.7376 419.295 53.1624 419.295 54.9199C419.295 56.6775 420.72 58.1022 422.478 58.1022Z" fill="#407BFF"/>
  <path opacity="0.8" d="M436.982 58.1022C438.74 58.1022 440.164 56.6775 440.164 54.9199C440.164 53.1624 438.74 51.7376 436.982 51.7376C435.225 51.7376 433.8 53.1624 433.8 54.9199C433.8 56.6775 435.225 58.1022 436.982 58.1022Z" fill="#407BFF"/>
  <path opacity="0.2" d="M640.817 92.2701H519.705C517.069 92.2701 514.932 94.4073 514.932 97.0436V192.245C514.932 194.881 517.069 197.018 519.705 197.018H640.817C643.454 197.018 645.591 194.881 645.591 192.245V97.0436C645.591 94.4073 643.454 92.2701 640.817 92.2701Z" fill="#407BFF"/>
  <path opacity="0.2" d="M690.562 83.9459H597.538C595.512 83.9459 593.87 85.5881 593.87 87.6139V160.74C593.87 162.766 595.512 164.408 597.538 164.408H690.562C692.588 164.408 694.23 162.766 694.23 160.74V87.6139C694.23 85.5881 692.588 83.9459 690.562 83.9459Z" fill="#407BFF"/>
  <path opacity="0.2" d="M638.523 230.818H545.499C543.473 230.818 541.831 232.46 541.831 234.486V307.612C541.831 309.638 543.473 311.28 545.499 311.28H638.523C640.548 311.28 642.191 309.638 642.191 307.612V234.486C642.191 232.46 640.548 230.818 638.523 230.818Z" fill="#407BFF"/>
  <path opacity="0.7" d="M711.95 47.0814H395.629V361.828H711.95V47.0814Z" fill="white"/>
  <path d="M682.907 76.1241H366.586V390.871H682.907V76.1241Z" fill="#407BFF"/>
  <path opacity="0.1" d="M469.844 91.7844H366.586V151.025H469.844V91.7844Z" fill="black"/>
  <path opacity="0.2" d="M469.844 210.25H366.586V269.491H469.844V210.25Z" fill="black"/>
  <path opacity="0.1" d="M469.844 269.491H366.586V328.732H469.844V269.491Z" fill="black"/>
  <path d="M469.844 91.7844H677.665V379.08C677.665 381.114 676.857 383.065 675.418 384.504C673.98 385.942 672.029 386.751 669.994 386.751H477.532C475.497 386.751 473.546 385.942 472.107 384.504C470.669 383.065 469.86 381.114 469.86 379.08V91.7844H469.844Z" fill="white"/>
  <path opacity="0.3" d="M682.907 76.1241H366.586V91.7845H682.907V76.1241Z" fill="black"/>
  <path opacity="0.8" d="M378.913 87.1282C380.671 87.1282 382.096 85.7034 382.096 83.9459C382.096 82.1883 380.671 80.7635 378.913 80.7635C377.156 80.7635 375.731 82.1883 375.731 83.9459C375.731 85.7034 377.156 87.1282 378.913 87.1282Z" fill="#407BFF"/>
  <path opacity="0.8" d="M393.435 87.1282C395.192 87.1282 396.617 85.7034 396.617 83.9459C396.617 82.1883 395.192 80.7635 393.435 80.7635C391.677 80.7635 390.253 82.1883 390.253 83.9459C390.253 85.7034 391.677 87.1282 393.435 87.1282Z" fill="#407BFF"/>
  <path opacity="0.8" d="M407.956 87.1282C409.714 87.1282 411.139 85.7034 411.139 83.9459C411.139 82.1883 409.714 80.7635 407.956 80.7635C406.199 80.7635 404.774 82.1883 404.774 83.9459C404.774 85.7034 406.199 87.1282 407.956 87.1282Z" fill="#407BFF"/>
  <path opacity="0.2" d="M611.791 121.313H490.679C488.043 121.313 485.906 123.45 485.906 126.086V221.288C485.906 223.924 488.043 226.061 490.679 226.061H611.791C614.428 226.061 616.565 223.924 616.565 221.288V126.086C616.565 123.45 614.428 121.313 611.791 121.313Z" fill="#407BFF"/>
  <path opacity="0.2" d="M663.06 204.07H570.036C568.01 204.07 566.368 205.712 566.368 207.738V280.864C566.368 282.889 568.01 284.532 570.036 284.532H663.06C665.086 284.532 666.728 282.889 666.728 280.864V207.738C666.728 205.712 665.086 204.07 663.06 204.07Z" fill="#407BFF"/>
  <path opacity="0.2" d="M609.497 259.86H516.473C514.447 259.86 512.805 261.503 512.805 263.528V336.655C512.805 338.68 514.447 340.323 516.473 340.323H609.497C611.522 340.323 613.165 338.68 613.165 336.655V263.528C613.165 261.503 611.522 259.86 609.497 259.86Z" fill="#407BFF"/>
  <path opacity="0.5" d="M682.907 76.1241H366.586V390.871H682.907V76.1241Z" fill="white"/>
  <path d="M653.881 105.15H337.56V419.897H653.881V105.15Z" fill="#407BFF"/>
  <path opacity="0.1" d="M440.818 120.81H337.56V180.052H440.818V120.81Z" fill="black"/>
  <path opacity="0.2" d="M440.818 239.293H337.56V298.534H440.818V239.293Z" fill="black"/>
  <path opacity="0.1" d="M440.818 298.534H337.56V357.775H440.818V298.534Z" fill="black"/>
  <path d="M440.818 120.81H648.639V408.122C648.639 410.157 647.831 412.108 646.392 413.547C644.954 414.985 643.003 415.793 640.968 415.793H448.489C446.454 415.793 444.503 414.985 443.065 413.547C441.626 412.108 440.818 410.157 440.818 408.122V120.81Z" fill="white"/>
  <path opacity="0.3" d="M653.881 105.15H337.56V120.81H653.881V105.15Z" fill="black"/>
  <path opacity="0.8" d="M349.887 116.171C351.645 116.171 353.07 114.746 353.07 112.989C353.07 111.231 351.645 109.806 349.887 109.806C348.13 109.806 346.705 111.231 346.705 112.989C346.705 114.746 348.13 116.171 349.887 116.171Z" fill="#407BFF"/>
  <path opacity="0.8" d="M367.591 112.989C367.594 113.622 367.41 114.242 367.06 114.77C366.711 115.299 366.212 115.711 365.628 115.956C365.044 116.201 364.4 116.267 363.778 116.145C363.157 116.023 362.585 115.72 362.136 115.273C361.687 114.827 361.381 114.257 361.256 113.636C361.131 113.015 361.193 112.371 361.435 111.785C361.677 111.2 362.087 110.699 362.613 110.347C363.14 109.994 363.759 109.806 364.392 109.806C364.811 109.804 365.227 109.885 365.615 110.044C366.003 110.203 366.356 110.437 366.653 110.732C366.95 111.028 367.186 111.38 367.347 111.767C367.508 112.154 367.591 112.569 367.591 112.989Z" fill="#407BFF"/>
  <path opacity="0.8" d="M378.913 116.171C380.671 116.171 382.096 114.746 382.096 112.989C382.096 111.231 380.671 109.806 378.913 109.806C377.156 109.806 375.731 111.231 375.731 112.989C375.731 114.746 377.156 116.171 378.913 116.171Z" fill="#407BFF"/>
  <path opacity="0.2" d="M509.204 97.4288H327.226C323.267 97.4288 320.057 100.638 320.057 104.597V247.65C320.057 251.609 323.267 254.819 327.226 254.819H509.204C513.163 254.819 516.372 251.609 516.372 247.65V104.597C516.372 100.638 513.163 97.4288 509.204 97.4288Z" fill="#407BFF"/>
  <path opacity="0.2" d="M607.638 174.323H467.867C464.824 174.323 462.357 176.79 462.357 179.834V289.707C462.357 292.75 464.824 295.217 467.867 295.217H607.638C610.681 295.217 613.148 292.75 613.148 289.707V179.834C613.148 176.79 610.681 174.323 607.638 174.323Z" fill="#407BFF"/>
  <path opacity="0.2" d="M658.085 323.641H518.315C515.272 323.641 512.805 326.108 512.805 329.151V439.024C512.805 442.068 515.272 444.535 518.315 444.535H658.085C661.129 444.535 663.596 442.068 663.596 439.024V329.151C663.596 326.108 661.129 323.641 658.085 323.641Z" fill="#407BFF"/>
  <path d="M244.57 189.531L232.41 215.04C228.39 223.549 224.454 232.107 220.954 240.582L219.698 243.748C219.513 244.234 219.463 244.334 219.329 244.753C219.195 245.172 219.095 245.507 218.994 245.976C218.553 247.977 218.223 250.001 218.006 252.039C217.537 256.41 217.269 261.033 217.102 265.672C216.767 274.968 216.683 284.498 216.566 293.928L207.387 294.95C205.288 285.431 203.767 275.794 202.831 266.091C202.328 261.082 202.094 256.051 202.128 251.017C202.137 248.294 202.328 245.575 202.697 242.877C202.781 242.174 202.949 241.37 203.116 240.599C203.284 239.829 203.568 238.807 203.753 238.171L204.908 234.603C208.04 225.173 211.692 216.179 215.527 207.319C219.363 198.459 223.466 189.766 227.888 181.107L244.57 189.531Z" fill="#FFC3BD"/>
  <path d="M216.432 291.047L220.719 299.07L207.035 302.889C207.035 302.889 204.423 296.44 207.521 291.365L216.432 291.047Z" fill="#FFC3BD"/>
  <path d="M225.978 310.643L213.383 311.631L207.035 302.889L220.719 299.07L225.978 310.643Z" fill="#FFC3BD"/>
  <path d="M285.555 123.306C285.756 124.277 286.426 124.981 287.062 124.83C287.699 124.679 288.05 123.808 287.866 122.837C287.682 121.866 286.995 121.162 286.359 121.313C285.722 121.464 285.354 122.268 285.555 123.306Z" fill="#263238"/>
  <path d="M286.342 124.981C288.105 127.716 290.235 130.195 292.673 132.35C292.109 132.962 291.417 133.442 290.648 133.757C289.878 134.073 289.049 134.216 288.218 134.176L286.342 124.981Z" fill="#ED847E"/>
  <path d="M280.831 118.633C280.995 118.63 281.151 118.564 281.267 118.449C281.746 117.895 282.349 117.464 283.028 117.19C283.707 116.916 284.441 116.808 285.169 116.874C285.323 116.901 285.48 116.866 285.607 116.776C285.735 116.687 285.821 116.55 285.848 116.397C285.874 116.244 285.839 116.086 285.75 115.959C285.66 115.832 285.524 115.745 285.37 115.719C284.44 115.609 283.496 115.728 282.621 116.063C281.746 116.399 280.965 116.941 280.346 117.645C280.268 117.728 280.215 117.831 280.195 117.943C280.175 118.055 280.188 118.171 280.233 118.276C280.277 118.38 280.351 118.47 280.445 118.533C280.54 118.597 280.651 118.631 280.764 118.633H280.831Z" fill="#263238"/>
  <path d="M257.852 136.99C259.61 145.984 261.386 162.482 255.088 168.478C255.088 168.478 257.55 177.623 274.266 177.623C292.69 177.623 283.059 168.495 283.059 168.495C273.01 166.083 273.278 158.646 275.02 151.645L257.852 136.99Z" fill="#FFC3BD"/>
  <path d="M250.901 171.677C249.444 169.064 247.819 166.083 251.169 165.162C254.837 164.123 274.986 163.085 281.937 165.011C288.888 166.937 286.962 172.213 286.962 172.213L250.901 171.677Z" fill="#263238"/>
  <path d="M198.946 580.151C199.981 580.395 201.07 580.22 201.977 579.665C202.139 579.475 202.238 579.24 202.262 578.991C202.286 578.743 202.233 578.493 202.111 578.275C202.035 578.095 201.92 577.932 201.776 577.799C201.632 577.666 201.46 577.566 201.274 577.505C199.599 576.885 195.914 578.845 195.747 578.929C195.698 578.954 195.659 578.993 195.632 579.04C195.605 579.088 195.593 579.142 195.596 579.197C195.6 579.254 195.622 579.308 195.657 579.353C195.693 579.398 195.742 579.431 195.797 579.448C196.821 579.785 197.875 580.021 198.946 580.151ZM200.738 577.974L201.089 578.058C201.199 578.092 201.299 578.15 201.384 578.229C201.468 578.307 201.533 578.403 201.575 578.51C201.793 579.012 201.575 579.197 201.575 579.264C200.972 579.883 198.477 579.632 196.684 579.113C197.934 578.437 199.319 578.048 200.738 577.974Z" fill="#407BFF"/>
  <path d="M195.864 579.515C195.907 579.532 195.955 579.532 195.998 579.515C197.338 578.962 200.085 576.55 199.967 575.16C199.949 574.942 199.855 574.738 199.703 574.582C199.55 574.426 199.347 574.328 199.13 574.306C198.914 574.249 198.687 574.241 198.467 574.281C198.247 574.322 198.039 574.41 197.857 574.54C196.316 575.545 195.629 579.046 195.613 579.196C195.604 579.246 195.609 579.297 195.627 579.344C195.644 579.391 195.674 579.433 195.713 579.464C195.733 579.484 195.757 579.498 195.783 579.507C195.809 579.515 195.837 579.518 195.864 579.515ZM198.661 575.21H198.778C199.147 575.327 199.147 575.495 199.147 575.579C199.147 576.399 197.237 578.125 195.797 578.828C196.133 577.467 196.875 576.241 197.924 575.311C198.031 575.238 198.151 575.187 198.277 575.161C198.404 575.135 198.534 575.135 198.661 575.16V575.21Z" fill="#407BFF"/>
  <path d="M287.816 591.875C289.39 591.875 290.914 591.658 291.417 590.938C291.553 590.753 291.626 590.53 291.626 590.301C291.626 590.072 291.553 589.849 291.417 589.665C291.212 589.323 290.881 589.076 290.496 588.978C288.452 588.425 284.148 590.887 283.963 590.988C283.908 591.008 283.86 591.044 283.827 591.092C283.793 591.14 283.775 591.197 283.775 591.256C283.775 591.314 283.793 591.372 283.827 591.42C283.86 591.468 283.908 591.504 283.963 591.524C285.235 591.753 286.524 591.871 287.816 591.875ZM289.759 589.48C289.947 589.454 290.139 589.454 290.328 589.48C290.446 589.504 290.558 589.551 290.656 589.621C290.754 589.69 290.836 589.779 290.897 589.882C291.098 590.251 291.031 590.435 290.897 590.536C290.328 591.323 287.213 591.339 284.935 591.021C286.433 590.228 288.072 589.733 289.759 589.564V589.48Z" fill="#407BFF"/>
  <path d="M284.181 591.524C285.655 590.854 288.603 588.174 288.385 586.801C288.385 586.482 288.101 586.064 287.297 585.98C286.998 585.946 286.696 585.973 286.408 586.06C286.12 586.146 285.853 586.29 285.622 586.482C284.064 587.772 283.729 591.088 283.712 591.222C283.71 591.273 283.72 591.323 283.74 591.37C283.76 591.416 283.791 591.457 283.83 591.49C283.881 591.523 283.94 591.544 284.001 591.55C284.063 591.555 284.124 591.547 284.181 591.524ZM287.179 586.499H287.347C287.883 586.499 287.916 586.767 287.916 586.834C288.05 587.655 286.057 589.748 284.566 590.67C284.724 589.261 285.309 587.934 286.241 586.868C286.489 586.679 286.785 586.562 287.096 586.533L287.179 586.499Z" fill="#407BFF"/>
  <path d="M270.564 591.239H282.875L284.098 562.749H271.787L270.564 591.239Z" fill="#FFC3BD"/>
  <path d="M181.879 577.656L194.105 578.979L203.334 551.326L191.107 550.003L181.879 577.656Z" fill="#FFC3BD"/>
  <path d="M195.127 577.656L181.393 576.165C181.15 576.14 180.905 576.197 180.698 576.328C180.492 576.458 180.335 576.655 180.254 576.885L176.67 587.504C176.582 587.761 176.554 588.035 176.588 588.304C176.622 588.574 176.717 588.832 176.866 589.06C177.014 589.287 177.212 589.478 177.445 589.617C177.678 589.757 177.94 589.842 178.21 589.866C183.017 590.318 185.379 590.284 191.425 590.937C195.144 591.339 202.764 592.612 207.906 593.115C213.048 593.617 214.254 588.676 212.211 587.99C202.999 584.908 199.766 581.675 197.036 578.627C196.538 578.083 195.86 577.738 195.127 577.656Z" fill="#263238"/>
  <path d="M282.791 589.815H269.392C269.149 589.814 268.913 589.897 268.724 590.049C268.534 590.202 268.404 590.415 268.353 590.653L265.925 601.59C265.864 601.854 265.864 602.127 265.924 602.391C265.984 602.655 266.104 602.902 266.273 603.113C266.442 603.324 266.657 603.494 266.901 603.61C267.145 603.726 267.413 603.786 267.683 603.784C272.541 603.7 279.542 603.415 285.638 603.415C292.757 603.415 298.904 603.801 307.261 603.801C312.286 603.801 313.71 598.692 311.599 598.223C301.969 596.13 294.113 595.895 285.806 590.77C284.91 590.177 283.865 589.846 282.791 589.815Z" fill="#263238"/>
  <path d="M301.131 174.776C304.615 175.864 308.518 177.053 312.253 178.125C315.988 179.197 319.823 180.119 323.625 180.939C331.026 182.682 338.563 183.786 346.153 184.239C347.961 184.239 349.754 184.356 351.479 184.239H352.534C352.752 184.239 353.12 184.239 353.422 184.155C354.092 184.055 354.862 183.887 355.666 183.686C359.231 182.706 362.728 181.492 366.134 180.052C373.336 177.104 380.722 173.653 388.025 170.32L393.133 178.008C386.785 183.617 379.959 188.661 372.733 193.082C368.917 195.463 364.898 197.503 360.724 199.179C359.532 199.653 358.313 200.056 357.073 200.385C356.369 200.552 355.733 200.72 354.946 200.854L353.824 201.038L352.953 201.138C350.608 201.44 348.313 201.557 346.035 201.624C337.257 201.699 328.494 200.857 319.89 199.112C315.686 198.274 311.516 197.437 307.412 196.231C303.309 195.025 299.322 193.97 295.051 192.429L301.131 174.776Z" fill="#FFC3BD"/>
  <path d="M233.047 171.275C221.523 173.905 209.866 207.637 209.866 207.637L233.599 224.654C233.599 224.654 240.299 208.96 246.747 195.226C253.581 180.889 244.838 168.562 233.047 171.275Z" fill="#407BFF"/>
  <path opacity="0.3" d="M233.047 171.275C221.523 173.905 209.866 207.637 209.866 207.637L233.599 224.654C233.599 224.654 240.299 208.96 246.747 195.226C253.581 180.889 244.838 168.562 233.047 171.275Z" fill="black"/>
  <path d="M301.985 171.895C301.985 171.895 315.083 186.701 302.706 278.251H236.899C236.447 268.201 242.794 218.876 233.047 171.275C240.325 169.865 247.688 168.931 255.088 168.478C264.404 167.933 273.743 167.933 283.059 168.478C289.447 169.126 295.774 170.269 301.985 171.895Z" fill="#407BFF"/>
  <path opacity="0.3" d="M301.985 171.895C301.985 171.895 315.083 186.701 302.706 278.251H236.899C236.447 268.201 242.794 218.876 233.047 171.275C240.325 169.865 247.688 168.931 255.088 168.478C264.404 167.933 273.743 167.933 283.059 168.478C289.447 169.126 295.774 170.269 301.985 171.895Z" fill="black"/>
  <path opacity="0.3" d="M301.985 171.895C301.985 171.895 300.512 171.493 298.116 170.94C290.881 171.694 287.364 180.018 289.306 188.66C290.747 195.092 300.093 203.885 308.032 210.434C307.848 178.527 301.985 171.895 301.985 171.895Z" fill="black"/>
  <path d="M285.856 190.788C291.735 200.971 323.876 210.886 323.876 210.886L334.663 181.978C334.663 181.978 316.239 176.953 301.952 171.928C284.282 165.58 279.441 179.599 285.856 190.788Z" fill="#407BFF"/>
  <path opacity="0.3" d="M285.856 190.788C291.735 200.971 323.876 210.886 323.876 210.886L334.663 181.978C334.663 181.978 316.239 176.953 301.952 171.928C284.282 165.58 279.441 179.599 285.856 190.788Z" fill="black"/>
  <path d="M385.931 173.117L387.975 160.305L399.33 163.554C399.33 163.554 401.005 174.96 392.731 178.326L385.931 173.117Z" fill="#FFC3BD"/>
  <path d="M392.865 148.999L402.446 157.055L399.33 163.554L387.975 160.304L392.865 148.999Z" fill="#FFC3BD"/>
  <path opacity="0.2" d="M284.081 562.749L283.461 577.438H271.151L271.77 562.749H284.081Z" fill="black"/>
  <path opacity="0.2" d="M191.107 550.003L203.334 551.343L198.577 565.596L186.334 564.256L191.107 550.003Z" fill="black"/>
  <path d="M252.693 127.828C255.859 139.636 257.115 146.704 264.418 151.595C275.371 158.981 289.005 150.506 289.424 138.012C289.809 126.756 284.583 109.354 271.921 106.976C269.135 106.457 266.263 106.655 263.573 107.549C260.884 108.443 258.466 110.005 256.544 112.088C254.623 114.172 253.262 116.709 252.589 119.462C251.915 122.214 251.951 125.093 252.693 127.828Z" fill="#FFC3BD"/>
  <path d="M280.446 92.3539C280.37 93.1486 280.117 93.9161 279.706 94.6002C279.294 95.2842 278.735 95.8673 278.068 96.3066C277.515 90.1095 275.053 84.1469 269.543 81.2325C270.447 83.8621 267.868 88.0326 264.083 92.2869C263.662 90.7291 262.924 89.275 261.915 88.0156C260.906 86.7562 259.649 85.7185 258.22 84.9676C255.708 94.6987 247.669 96.3066 241.287 102.303C239.906 103.661 238.965 105.402 238.585 107.302C238.206 109.201 238.406 111.171 239.16 112.955C237.485 112.201 235.492 112.386 234.052 116.137C235.434 115.263 237.023 114.772 238.658 114.714C237.519 115.786 236.631 117.645 237.284 121.832C238.423 128.917 252.978 149.97 262.173 148.915C272.223 147.76 274.065 136.119 274.299 125.617L274.685 125.416C281.652 121.715 290.261 101.918 280.446 92.3539Z" fill="#263238"/>
  <path d="M269.526 128.029C270.784 130.79 272.914 133.062 275.589 134.494C279.14 136.337 281.116 133.64 280.329 130.106C279.609 126.907 276.979 122.117 273.244 121.732C269.509 121.346 268.052 124.679 269.526 128.029Z" fill="#FFC3BD"/>
  <path d="M279.374 278.251C279.374 278.251 265.406 372.28 257.735 407.519C249.36 446.042 205.193 564.206 205.193 564.206L183.034 560.136C183.034 560.136 216.03 449.208 220.82 411.07C226.029 369.616 236.899 278.318 236.899 278.318L279.374 278.251Z" fill="#407BFF"/>
  <path opacity="0.2" d="M270.548 311.749C254.402 314.914 256.11 375.127 258.053 406.096C262.709 384.205 269.526 342.081 274.182 312.184C273.056 311.629 271.773 311.476 270.548 311.749Z" fill="black"/>
  <path d="M302.706 278.251C302.706 278.251 304.381 370.253 303.074 407.771C301.684 446.796 288 574.59 288 574.59H267.198C267.198 574.59 266.427 449.074 265.523 410.752C264.518 368.963 259.46 278.251 259.46 278.251H302.706Z" fill="#407BFF"/>
  <path opacity="0.2" d="M284.533 559.5L283.628 559.399C287.296 524.042 295.972 438.488 297.028 407.821C298.15 376.4 297.128 306.188 296.793 285.419L297.698 285.319C298.033 306.088 299.054 376.333 297.932 407.804C296.877 438.522 288.201 524.126 284.533 559.5Z" fill="black"/>
  <path d="M210.234 556.703C210.335 556.703 206.382 564.792 206.382 564.792L181.443 560.203L183.302 552.683L210.234 556.703Z" fill="#407BFF"/>
  <path opacity="0.5" d="M210.234 556.703C210.335 556.703 206.382 564.792 206.382 564.792L181.443 560.203L183.302 552.683L210.234 556.703Z" fill="black"/>
  <path d="M292.053 566.283C292.154 566.283 290.881 574.942 290.881 574.942H265.523L264.836 567.221L292.053 566.283Z" fill="#407BFF"/>
  <path opacity="0.5" d="M292.053 566.283C292.154 566.283 290.881 574.942 290.881 574.942H265.523L264.836 567.221L292.053 566.283Z" fill="black"/>
</svg>
