<svg class="animated" id="freepik_stories-teacher" xmlns="http://www.w3.org/2000/svg" viewBox="0 0 500 500" version="1.1" xmlns:xlink="http://www.w3.org/1999/xlink" xmlns:svgjs="http://svgjs.com/svgjs"><style>svg#freepik_stories-teacher:not(.animated) .animable {opacity: 0;}svg#freepik_stories-teacher.animated #freepik--Plants--inject-38 {animation: 1s 1 forwards cubic-bezier(.36,-0.01,.5,1.38) lightSpeedRight;animation-delay: 0s;}svg#freepik_stories-teacher.animated #freepik--Board--inject-38 {animation: 1s 1 forwards cubic-bezier(.36,-0.01,.5,1.38) slideUp;animation-delay: 0s;}svg#freepik_stories-teacher.animated #freepik--Desk--inject-38 {animation: 1s 1 forwards cubic-bezier(.36,-0.01,.5,1.38) slideDown;animation-delay: 0s;}svg#freepik_stories-teacher.animated #freepik--Character--inject-38 {animation: 1s 1 forwards cubic-bezier(.36,-0.01,.5,1.38) slideLeft;animation-delay: 0s;}svg#freepik_stories-teacher.animated #freepik--speech-bubble--inject-38 {animation: 1s 1 forwards cubic-bezier(.36,-0.01,.5,1.38) fadeIn,6s Infinite  linear heartbeat;animation-delay: 0s,2s;}            @keyframes lightSpeedRight {              from {                transform: translate3d(50%, 0, 0) skewX(-20deg);                opacity: 0;              }              60% {                transform: skewX(10deg);                opacity: 1;              }              80% {                transform: skewX(-2deg);              }              to {                opacity: 1;                transform: translate3d(0, 0, 0);              }            }                    @keyframes slideUp {                0% {                    opacity: 0;                    transform: translateY(30px);                }                100% {                    opacity: 1;                    transform: inherit;                }            }                    @keyframes slideDown {                0% {                    opacity: 0;                    transform: translateY(-30px);                }                100% {                    opacity: 1;                    transform: translateY(0);                }            }                    @keyframes slideLeft {                0% {                    opacity: 0;                    transform: translateX(-30px);                }                100% {                    opacity: 1;                    transform: translateX(0);                }            }                    @keyframes fadeIn {                0% {                    opacity: 0;                }                100% {                    opacity: 1;                }            }                    @keyframes heartbeat {                0% {                    transform: scale(1);                }                10% {                    transform: scale(1.1);                }                30% {                    transform: scale(1);                }                40% {                    transform: scale(1);                }                50% {                    transform: scale(1.1);                }                60% {                    transform: scale(1);                }                100% {                    transform: scale(1);                }            }        </style><g id="freepik--Floor--inject-38" style="transform-origin: 250.96px 372.38px 0px;" class="animable"><ellipse id="freepik--floor--inject-38" cx="250.96" cy="372.38" rx="205.13" ry="107.97" style="fill: rgb(245, 245, 245); transform-origin: 250.96px 372.38px 0px;" class="animable"></ellipse></g><g id="freepik--Shadows--inject-38" style="transform-origin: 269.875px 373.48px 0px;" class="animable"><polygon id="freepik--Shadow--inject-38" points="302.8 423.88 217.49 374.63 351.54 297.24 436.85 346.49 302.8 423.88" style="fill: rgb(224, 224, 224); transform-origin: 327.17px 360.56px 0px;" class="animable"></polygon><ellipse id="freepik--shadow--inject-38" cx="163.86" cy="414.53" rx="60.96" ry="35.19" style="fill: rgb(224, 224, 224); transform-origin: 163.86px 414.53px 0px;" class="animable"></ellipse></g><g id="freepik--Plants--inject-38" style="transform-origin: 438.758px 312.588px 0px;" class="animable"><g id="freepik--plants--inject-38" style="transform-origin: 438.758px 312.588px 0px;" class="animable"><path d="M420.61,321.78s-.51-12.09,3.95-22.22,11.68-17.16,19.15-18.95,14.69,4.22,7.34,10.28-21,13.18-24.8,32.11Z" style="fill: rgb(186, 104, 200); transform-origin: 437.355px 301.645px 0px;" id="eltwv8v9uiufs" class="animable"></path><g id="elk7yuf1oxsf7"><path d="M420.61,321.78s-.51-12.09,3.95-22.22,11.68-17.16,19.15-18.95,14.69,4.22,7.34,10.28-21,13.18-24.8,32.11Z" style="opacity: 0.15; transform-origin: 437.355px 301.645px 0px;" class="animable"></path></g><path d="M422.35,322.35h-.08a.43.43,0,0,1-.31-.5c4.91-20.92,18.83-35.52,25.51-38.2a.41.41,0,0,1,.53.23.41.41,0,0,1-.23.53c-6.54,2.62-20.18,17-25,37.63A.43.43,0,0,1,422.35,322.35Z" style="fill: rgb(255, 255, 255); transform-origin: 434.99px 302.986px 0px;" id="elpjxd5mjj7kk" class="animable"></path><path d="M440.07,338.33c-1.13,3.66-3.9,5.65-7.65,6.38-2.39.47-6.23,0-8.24-1.49-2.81-2.09-3.76-3.58-4.35-5.61a34.57,34.57,0,0,1-1.21-8.29,8.61,8.61,0,0,1,1.89-5.06,14.84,14.84,0,0,1,1.45-1.62c.57-.61,1.22-1.14,1.82-1.71a6.52,6.52,0,0,0,1.92-2.73c.47-1.52,0-3.15,0-4.74a7.26,7.26,0,0,1,5.56-6.92,33.27,33.27,0,0,1,4.75-.84c2.39-.22,5,.47,7.29-.26s4.34-1.91,6.72-2.37a8.47,8.47,0,0,1,7.21,1.64,4.47,4.47,0,0,1,1.65,3.87c-.26,1.59-1.62,2.75-2.91,3.71s-2.71,2-3.13,3.57c-.86,3.14,2.74,6.29,1.75,9.39a5.09,5.09,0,0,1-2.82,2.81c-1,.48-2.13.77-3.2,1.15a12.66,12.66,0,0,1-1.59.29,7.33,7.33,0,0,0-4.38,1.67C440.77,333,440.83,335.87,440.07,338.33Z" style="fill: rgb(186, 104, 200); transform-origin: 438.758px 323.869px 0px;" id="eluhwwxh8n2t" class="animable"></path><path d="M432.27,319.65a33.94,33.94,0,0,1,2.31-2.63,38.72,38.72,0,0,1,5.89-4.95,39.61,39.61,0,0,1,10.69-5.28,17.79,17.79,0,0,1,2.29-.56.36.36,0,0,1,.41.3.35.35,0,0,1-.29.41c-3.32.55-13.05,4.07-19.93,12.19a20,20,0,0,1,15.85,2.31.36.36,0,0,1,.08.5.39.39,0,0,1-.31.15.31.31,0,0,1-.2-.07,17.48,17.48,0,0,0-9.3-2.83,21.28,21.28,0,0,0-6.26.71c-1.19.31-1.61,1.08-2.09,2.15a73.48,73.48,0,0,0-3.18,8.37c-.44,1.43-.84,2.87-1.19,4.32-.17.68-.34,1.35-.5,2a10.94,10.94,0,0,0-.49,2.24c-.29,1.44-.56,2.89-.8,4.34,0,.09,0,.19-.05.28a.5.5,0,0,1-.18.39.37.37,0,0,1-.48-.19,1.13,1.13,0,0,1,0-.58,78.2,78.2,0,0,1,3.22-13.07C428.85,326.52,429.89,322.72,432.27,319.65Z" style="fill: rgb(255, 255, 255); transform-origin: 439.184px 325.123px 0px;" id="el1237oyrm7xc" class="animable"></path></g></g><g id="freepik--Window--inject-38" style="transform-origin: 392.784px 142.65px 0px;" class="animable"><g id="freepik--window--inject-38" style="transform-origin: 392.784px 142.65px 0px;" class="animable"><polygon points="445.29 215.34 442.55 216.97 340.24 157.63 342.98 156 445.29 215.34" style="fill: rgb(250, 250, 250); transform-origin: 392.765px 186.485px 0px;" id="eltlkdt4mww3k" class="animable"></polygon><polygon points="342.98 156 442.55 213.75 442.55 129.27 342.98 71.53 342.98 156" style="fill: rgb(255, 255, 255); transform-origin: 392.765px 142.64px 0px;" id="elkxyhk3xrua" class="animable"></polygon><polygon points="392.69 97.47 392.69 185.17 387.52 182.19 387.52 94.48 392.69 97.47" style="fill: rgb(240, 240, 240); transform-origin: 390.105px 139.825px 0px;" id="el3d4r4ao8bwe" class="animable"></polygon><polygon points="395.27 95.97 392.69 97.47 392.69 185.17 395.27 183.67 395.27 95.97" style="fill: rgb(224, 224, 224); transform-origin: 393.98px 140.57px 0px;" id="elvpqzitwpml" class="animable"></polygon><path d="M335.08,160.61l112.63,65.3V126.29L335.08,61Zm5.16-90.69,102.31,59.35V217L340.24,157.63Z" style="fill: rgb(240, 240, 240); transform-origin: 391.395px 143.455px 0px;" id="elhmv4d65f0u" class="animable"></path><polygon points="340.24 157.63 342.98 156 342.98 71.53 340.24 69.92 340.24 157.63" style="fill: rgb(224, 224, 224); transform-origin: 341.61px 113.775px 0px;" id="elnxe5yxnyhxm" class="animable"></polygon><polygon points="335.08 60.98 337.86 59.39 450.49 124.7 447.71 126.29 335.08 60.98" style="fill: rgb(250, 250, 250); transform-origin: 392.785px 92.84px 0px;" id="elz9jokbiplnk" class="animable"></polygon><polygon points="450.49 124.7 447.71 126.29 447.71 225.91 450.49 224.32 450.49 124.7" style="fill: rgb(224, 224, 224); transform-origin: 449.1px 175.305px 0px;" id="el0sw3jffhk6gb" class="animable"></polygon><polygon points="392.69 100.44 387.54 97.47 387.54 100.45 392.69 103.42 392.69 100.44" style="fill: rgb(224, 224, 224); transform-origin: 390.115px 100.445px 0px;" id="el84r0h9n0dry" class="animable"></polygon><g id="ellv76lx4ptcm"><polygon points="392.69 103.42 395.27 101.93 392.69 100.44 392.69 103.42" style="opacity: 0.15; transform-origin: 393.98px 101.93px 0px;" class="animable"></polygon></g></g></g><g id="freepik--Board--inject-38" style="transform-origin: 147.68px 177.855px 0px;" class="animable"><g id="freepik--board--inject-38" style="transform-origin: 147.68px 177.855px 0px;" class="animable"><polygon points="247.2 201.44 53.76 313.12 53.76 311.39 247.2 199.7 247.2 201.44" style="fill: rgb(55, 71, 79); transform-origin: 150.48px 256.41px 0px;" id="eliuul8cvemi" class="animable"></polygon><polygon points="241.61 196.47 247.2 199.7 53.76 311.39 48.16 308.16 241.61 196.47" style="fill: rgb(69, 90, 100); transform-origin: 147.68px 253.93px 0px;" id="elm5nmafuasyp" class="animable"></polygon><polygon points="48.16 308.16 53.76 311.39 53.76 313.12 48.16 309.89 48.16 308.16" style="fill: rgb(38, 50, 56); transform-origin: 50.96px 310.64px 0px;" id="elnxystw4nfkd" class="animable"></polygon><polygon points="237.31 198.96 52.46 305.68 52.46 151.8 237.31 45.08 237.31 198.96" style="fill: rgb(186, 104, 200); transform-origin: 144.885px 175.38px 0px;" id="elkamwegjt2w" class="animable"></polygon><g id="elsxt8petyj2"><polygon points="237.31 198.96 52.46 305.68 52.46 151.8 237.31 45.08 237.31 198.96" style="opacity: 0.2; transform-origin: 144.885px 175.38px 0px;" class="animable"></polygon></g><polygon points="57.4 296.25 57.4 155.53 232.38 54.5 232.38 195.22 57.4 296.25" style="fill: rgb(55, 71, 79); transform-origin: 144.89px 175.375px 0px;" id="elbnm3tcaic4" class="animable"></polygon><polygon points="232.38 54.5 61.17 153.35 57.4 155.53 57.4 160.57 57.4 296.25 61.17 294.07 61.17 158.38 232.38 59.54 232.38 54.5" style="fill: rgb(38, 50, 56); transform-origin: 144.89px 175.375px 0px;" id="eltfvt87otarr" class="animable"></polygon><g id="eluonsj0wjxwb"><polygon points="57.4 296.25 52.46 305.68 237.31 198.96 232.38 195.22 57.4 296.25" style="opacity: 0.3; transform-origin: 144.885px 250.45px 0px;" class="animable"></polygon></g><g id="elwau4wtzyvia"><polygon points="232.38 54.5 237.31 45.08 52.46 151.8 57.4 155.53 232.38 54.5" style="opacity: 0.15; transform-origin: 144.885px 100.305px 0px;" class="animable"></polygon></g><polygon points="48.16 149.32 52.46 151.8 52.46 305.68 48.16 303.19 48.16 149.32" style="fill: rgb(186, 104, 200); transform-origin: 50.31px 227.5px 0px;" id="elzjw0m63opr" class="animable"></polygon><g id="elec3yuqm7dr5"><polygon points="48.16 149.32 52.46 151.8 52.46 305.68 48.16 303.19 48.16 149.32" style="opacity: 0.35; transform-origin: 50.31px 227.5px 0px;" class="animable"></polygon></g><polygon points="237.31 45.08 233.01 42.59 48.16 149.32 52.46 151.8 237.31 45.08" style="fill: rgb(186, 104, 200); transform-origin: 142.735px 97.195px 0px;" id="eluxhploy5tie" class="animable"></polygon><g id="elnvb06ok99ds"><polygon points="237.31 45.08 233.01 42.59 48.16 149.32 52.46 151.8 237.31 45.08" style="opacity: 0.1; transform-origin: 142.735px 97.195px 0px;" class="animable"></polygon></g><path d="M207.4,164.05a.65.65,0,0,1,.1.25l-.13-.23c-.16.07-.32.12-.49.21.19-.27.34-.34.46-.27a13,13,0,0,0-1.07-1.65,8.13,8.13,0,0,0-4.34-3.44c-2.29-.6-5.12.75-7.83,2.46,3.56-8.35,7.84-16.22,7.83-24.82,0-9-6.57-9-11.91-1.72q-5.76,7.89-11.46,16c4.38-9.23,7.6-18.72,6.21-26.68-1-5.55-5.29-5.79-9.56-1.83-2.58,2.4-5.34,6.21-8.27,10.11-2.37,3.15-4.81,6.36-7.07,9.73a40.82,40.82,0,0,0,3.76-11c.86-5.62-.4-12.76-5.11-11.14-3.89,1.35-7.09,4.85-10.09,9,1.22-4.7,1.27-9.47-1.49-10.82-1.77-.85-3.76.07-5.66,1.87l.12-.18a14.87,14.87,0,0,0-2.91,3.4c-.21.3-.4.61-.59.92-3.5,4.82-6.22,10.73-9.15,16.15-1.83,3.37-3.56,6.71-5.37,10,.51-7-1.77-12.44-8.22-7.35-2.75,2.17-5.1,5.6-7.45,8.29-.3.34-.61.68-.95,1a4,4,0,0,0-3.52-2.63c-3.53-.06-7.43,1.63-11.34,5.77-5.51,5.84-9.09,20.57-1.54,18.6,1.08-.28,2.16-.79,3.23-1.15a10.65,10.65,0,0,0,.7,3.25c1.37,3.42,4.09,3.18,7.12,1.27C99.26,182.79,97,188,94.92,193.34c-1.45,3.78-2.82,7.87-4.44,11.61-2.64,6.06-5.58,11.92-7.1,18.37a12.72,12.72,0,0,0-.4,3.24c-.41,1.06-.8,2.12-1.18,3.19-2.57,7.25-.3,15.59,4.94,13.92,7.5-2.39,15.54-16.73,21.05-25.76,2.77-4.55,5.69-9.08,8.64-13.57l-.06.11c-1.19,2.53-2.53,5.13-3.64,7.69-.39,1-.74,2-1.11,3,0,.06-.05.09-.08.16-5.32,9.37-12.27,27.81-8,34.7,1.42,2.3,3.88,3.52,6.82,1.28,6.87-5.25,12.71-17,17.62-25.72,3.28-5.8,6.72-11.75,10.05-17.75a64.93,64.93,0,0,0-1.8,8.39c-1.08,8.07,2.22,12.29,7.85,9.33,4.15-2.17,8.49-9.11,11.63-14,4.21-6.5,8.64-12.65,12.88-19.09a26.83,26.83,0,0,0-.15,5.91c.65,7,4.83,9.26,10.33,3.69,5.15-5.21,9.7-13.37,15.09-16.88a15.51,15.51,0,0,0,2,2.42c2.55,2.5,6,2.69,9.85.74C215.28,183.52,217.19,160,207.4,164.05Z" style="fill: rgb(69, 90, 100); transform-origin: 147.309px 185.178px 0px;" id="eloxt12gegcr" class="animable"></path><path d="M238.73,198l-43.34-8.57c-.24,0-.53.35-.53.71v33.59c0,.26.16.38.35.27l43.35-25C238.91,198.77,239,198.07,238.73,198ZM201.51,211.6V197.68l18.08,3.48Z" style="fill: rgb(186, 104, 200); transform-origin: 216.873px 206.734px 0px;" id="ell7lr1kdlllp" class="animable"></path><path d="M102.28,279.07a3.58,3.58,0,0,0-1.62-2.81,1.14,1.14,0,0,0-1.15-.11h0l-18.35,10.6,2.3,4,18.35-10.6h0A1.14,1.14,0,0,0,102.28,279.07Z" style="fill: rgb(250, 250, 250); transform-origin: 91.7246px 283.396px 0px;" id="elcxip55j96p" class="animable"></path><path d="M82.31,286.86a3.58,3.58,0,0,1,1.62,2.81c0,1-.73,1.45-1.62.94a3.6,3.6,0,0,1-1.63-2.82C80.68,286.76,81.41,286.34,82.31,286.86Z" style="fill: rgb(230, 230, 230); transform-origin: 82.3047px 288.729px 0px;" id="elg8ew20v2msi" class="animable"></path><path d="M179.72,179.09c-3.8,0-5.35-1.66-6-3.05-1.5-3.27.45-8.38,5.35-14,7.63-8.82,20.11-16,27.82-16,3.79,0,5.35,1.66,6,3,1.5,3.27-.46,8.39-5.35,14C199.91,171.91,187.43,179.09,179.72,179.09Zm27.19-31.4c-7.29,0-19.2,6.92-26.56,15.41h0c-4.31,5-6.27,9.68-5.09,12.25.78,1.7,2.85,2.06,4.46,2.06,7.28,0,19.2-6.91,26.55-15.41,4.32-5,6.27-9.67,5.1-12.24C210.59,148.05,208.51,147.69,206.91,147.69Zm-27.19,14.86h0Z" style="fill: rgb(250, 250, 250); transform-origin: 193.305px 162.564px 0px;" id="elqv1xlazj0uk" class="animable"></path><path d="M175.38,169.77a.83.83,0,0,1-.8-1.1l17.94-53.47a.84.84,0,0,1,.72-.57.85.85,0,0,1,.81.43L212,147.82a.84.84,0,0,1-1.47.8l-17-31.08L176.17,169.2A.83.83,0,0,1,175.38,169.77Z" style="fill: rgb(250, 250, 250); transform-origin: 193.303px 142.197px 0px;" id="ela3v0fojnbq" class="animable"></path><path d="M193.31,163.39h0a.83.83,0,0,1-.83-.84V115.46a.83.83,0,0,1,.84-.83h0a.83.83,0,0,1,.83.83v47.09A.84.84,0,0,1,193.31,163.39Z" style="fill: rgb(250, 250, 250); transform-origin: 193.314px 139.01px 0px;" id="elv802q91gt8" class="animable"></path><path d="M185.2,121a.85.85,0,0,1-.73-.42.84.84,0,0,1,.31-1.14l2.9-1.67a.83.83,0,0,1,1.14.3.85.85,0,0,1-.31,1.15l-2.9,1.67A.77.77,0,0,1,185.2,121Z" style="fill: rgb(250, 250, 250); transform-origin: 186.645px 119.328px 0px;" id="elhbdpr1pubya" class="animable"></path><path d="M148,142.44a.82.82,0,0,1-.72-.42.83.83,0,0,1,.3-1.14l6.2-3.58a.84.84,0,0,1,.83,1.45l-6.19,3.57A.81.81,0,0,1,148,142.44Zm12.39-7.15a.85.85,0,0,1-.73-.42.84.84,0,0,1,.31-1.14l6.19-3.58a.84.84,0,0,1,.84,1.45l-6.2,3.58A.87.87,0,0,1,160.43,135.29Zm12.38-7.15a.82.82,0,0,1-.72-.42.83.83,0,0,1,.3-1.14l6.19-3.58a.84.84,0,0,1,1.15.31.84.84,0,0,1-.31,1.14L173.23,128A.91.91,0,0,1,172.81,128.14Z" style="fill: rgb(250, 250, 250); transform-origin: 163.482px 132.664px 0px;" id="elwmgn3fv20xb" class="animable"></path><path d="M139,147.68a.86.86,0,0,1-.73-.41.85.85,0,0,1,.31-1.15l2.9-1.67a.84.84,0,0,1,.84,1.45l-2.9,1.67A.8.8,0,0,1,139,147.68Z" style="fill: rgb(250, 250, 250); transform-origin: 140.424px 146.021px 0px;" id="ellzx9z88ahvo" class="animable"></path><path d="M185.2,168.08a.85.85,0,0,1-.73-.42.84.84,0,0,1,.31-1.14l2.9-1.67a.82.82,0,0,1,1.14.3.85.85,0,0,1-.31,1.15l-2.9,1.67A.77.77,0,0,1,185.2,168.08Z" style="fill: rgb(250, 250, 250); transform-origin: 186.645px 166.404px 0px;" id="elgb2j90st2ch" class="animable"></path><path d="M148,189.53a.82.82,0,0,1-.72-.42.83.83,0,0,1,.3-1.14l6.2-3.58a.84.84,0,0,1,.83,1.45l-6.19,3.57A.81.81,0,0,1,148,189.53Zm12.39-7.15a.85.85,0,0,1-.73-.42.84.84,0,0,1,.31-1.14l6.19-3.58a.84.84,0,0,1,.84,1.45l-6.2,3.58A.87.87,0,0,1,160.43,182.38Zm12.38-7.15a.82.82,0,0,1-.72-.42.83.83,0,0,1,.3-1.14l6.19-3.58a.84.84,0,0,1,1.15.31.84.84,0,0,1-.31,1.14l-6.19,3.58A.91.91,0,0,1,172.81,175.23Z" style="fill: rgb(250, 250, 250); transform-origin: 163.482px 179.754px 0px;" id="elucxn7bhihzr" class="animable"></path><path d="M139,194.77a.85.85,0,0,1-.73-.42.84.84,0,0,1,.31-1.14l2.9-1.67a.84.84,0,0,1,.84,1.45l-2.9,1.67A.8.8,0,0,1,139,194.77Z" style="fill: rgb(250, 250, 250); transform-origin: 140.424px 193.111px 0px;" id="elxwkkfkju6z8" class="animable"></path><path d="M129.48,151.72c-1.18,1.06-2.72-2.11-2.54-3.11.14-.75-1.21-1.4-1.42-.5a62.65,62.65,0,0,1-2.09,6.1c-.21.61-.38,1.22-.63,1.82a2.57,2.57,0,0,1-.43.86q-.23.12-.06.24a1.06,1.06,0,0,1-.35-.58c-.57-1.36-.06-3.26.21-4.67.21-1.09.62-2.57-.15-3.54-.26-.33-.82-.59-1.17-.23-.6.61-4.25,6.9-5.06,6.1a.66.66,0,0,0-1.06,0c-.51.85-.89,1.78-1.39,2.65-.25.43-.66.88-.86,1.32,0,0,0,0-.07.06a2.7,2.7,0,0,1-.12-.49c-.1-.53-1-1.16-1.33-.51-.57,1-.76,2.2-1.38,3.15a1.93,1.93,0,0,1-.27.31s0-.07,0-.1a4.47,4.47,0,0,0-.19-1.31c-.14-.51-1.29-1.1-1.59-.42-.8,1.77-1.26,4.12-2.76,5.46a1.5,1.5,0,0,1-.67.35l0,0c.6-1.08,1.59-2.69,1.06-4a1.55,1.55,0,0,0-2.38-.68,3.67,3.67,0,0,0-1,5,7.69,7.69,0,0,1-2,2.31c-1.2.85-3.23,1.21-4.49.25a1.69,1.69,0,0,1-.49-.74,15.77,15.77,0,0,0,1-3.56c.08-.47-.57-1.18-1.06-.91-.93.52-1.26,2-1.32,3.07a24,24,0,0,1-1.33,2.69,9.46,9.46,0,0,1-1.7,2.36c-.87.76-1.08-.24-1.34-1.05-.19-.58-1.34-1.28-1.81-.56a32.05,32.05,0,0,0-1.87,3.34,13.72,13.72,0,0,1-1.55,3c-.16-.25-.28-.63-.38-.77a1.87,1.87,0,0,0-.77-.65,2,2,0,0,0-2.11.33c-.12.1-.23.21-.34.32a12.57,12.57,0,0,0,.51-1.33c.59-1.85.65-4.28-.75-5.82-2.49-2.73-6.47.8-5.94,3.8.11.61,1.24,1.23,1.23.29a3.83,3.83,0,0,1,2-3c1.59-.85,1.55,2,1.4,3-.44,2.82-2.39,5.17-3.13,7.92-.32,1.17,1.53,1.36,2.15.82a39.51,39.51,0,0,0,4-3.92l.21-.23L82,176a3,3,0,0,0,1.52,1.2c1.61.49,2.43-1.15,3-2.35s1.09-2.34,1.69-3.49c.87,1.06,2.09,1.64,3.49.52a11.25,11.25,0,0,0,2.62-3.85h0a4.25,4.25,0,0,0,1.94,1.21c3.17.95,5.35-.83,7-3.19a2.25,2.25,0,0,0,.44.14c2.5.6,3.75-2,4.61-4.27a1.32,1.32,0,0,0,1.59.42c1.26-.35,1.58-1.76,1.93-3,.47.51,1.09.67,1.85,0,1.06-1,1.52-2.5,2.14-3.8,1.84.61,3.64-2.28,5-4.43-.07.25-.13.47-.15.6a21.9,21.9,0,0,0-.36,2.56c-.11,1.56.17,4.26,2.25,4.39,1.52.1,2.06-1.87,2.4-3,.48-1.56,1.08-3.06,1.52-4.6,1,1.9,2.8,3.5,4.16,1.65C131,152.19,130,151.28,129.48,151.72Z" style="fill: rgb(250, 250, 250); transform-origin: 102.355px 164.035px 0px;" id="elzweuxl1vqb" class="animable"></path><path d="M109.78,209.7c-1.06.83-1.85,2.88-3.33,3a1.43,1.43,0,0,1-.84-.18,8.52,8.52,0,0,0,1.16-2.5c.41-1.56-.19-3.57-2.17-3.43-2.41.18-1.66,4-1.06,5.41,0,.1.1.2.15.3l-.21.22c-.33.33-.93.92-1.46.89-.69,0-.82-1-.94-1.55s-.81-.92-1.19-.54c-.92.94-1.23,2.47-1.87,3.6l-.13,0a3.05,3.05,0,0,0-.27-.57,1.89,1.89,0,0,0-1.07-.91.59.59,0,0,0-.76.22c-.49,1-.84,2-1.25,3a14.07,14.07,0,0,1-.72,1.52,6.74,6.74,0,0,1-.71.84,4.09,4.09,0,0,1,0-.47,10.28,10.28,0,0,0,0-1.84c-.07-.5-1.07-1.2-1.45-.61-2,3.13-4,6.5-6.71,9-.32.29-1.21,1.19-1.71,1.11s-.28-1.9-.13-2.42a18.38,18.38,0,0,1,2.18-4.31c.6-1,1.31-2.43,2.42-3a3.65,3.65,0,0,1-1.23,2.35c-.37.34.16,1.28.62.92a5.26,5.26,0,0,0,2-4.08,1,1,0,0,0-.78-.83c-2.79-.39-4.39,3.36-5.51,5.35s-2.62,5.21-.57,7c2.73,2.4,6.59-3.7,7.81-5.4.55-.77,1.1-1.56,1.62-2.35.1.78.42,1.41,1.29,1.5s1.77-1.08,2.2-1.81a27.9,27.9,0,0,0,1.63-3.76,2.2,2.2,0,0,0,.32.67,1.32,1.32,0,0,0,1.44.29c1.28-.46,1.41-1.85,1.87-3a2.21,2.21,0,0,0,3.06,1.09,5.07,5.07,0,0,0,1.33-1,3.2,3.2,0,0,0,2.52.72,4.53,4.53,0,0,0,3.31-3.78C110.62,210.17,110.19,209.37,109.78,209.7Zm-5.24.91c-.13-.6-.38-2.08.28-2.5s.68.23.64.65a5.18,5.18,0,0,1-.82,2.25C104.6,210.88,104.57,210.74,104.54,210.61Z" style="fill: rgb(250, 250, 250); transform-origin: 95.9316px 217.162px 0px;" id="ellx63qo75ds" class="animable"></path><path d="M132.67,201.48a3.4,3.4,0,0,1-1.14-2.12c-.09-.74.06-1.49-.06-2.23a1.64,1.64,0,0,0-2.36-1.34,7,7,0,0,0-2.17,2.55c-.27.43-.52.87-.77,1.3-.35-.47-1.14-.73-1.54-.2a27.65,27.65,0,0,0-1.56,2.32c0-.1,0-.2,0-.3a2.65,2.65,0,0,0-2.85-2.15,5.15,5.15,0,0,0-3.78,3,3.92,3.92,0,0,0-.42,2.18,1,1,0,0,0,.72.94.64.64,0,0,0,.63-.08c.09-.08.33-.44.19-.57s.39-1.38.49-1.57a6,6,0,0,1,1.07-1.39,3.69,3.69,0,0,1,1.17-.78,3.25,3.25,0,0,1,.73-.16c.42.23.37,1.36.38,1.76,0,.79,0,1.57,0,2.36s1.37,1.35,1.8.6c.75-1.31,1.47-2.64,2.28-3.91l0,.06c.24.44,1.22.89,1.54.28.8-1.51,1.57-3.39,2.86-4.57,0,.49,0,1.09,0,1.18a5.35,5.35,0,0,0,1.92,3.85C132.67,203.19,133.55,202.16,132.67,201.48Z" style="fill: rgb(250, 250, 250); transform-origin: 124.518px 200.787px 0px;" id="elh9cj0csdb1q" class="animable"></path></g></g><g id="freepik--Desk--inject-38" style="transform-origin: 327.75px 310.79px 0px;" class="animable"><g id="freepik--desk--inject-38" style="transform-origin: 327.75px 310.79px 0px;" class="animable"><g id="freepik--desk--inject-38" style="transform-origin: 327.75px 317.42px 0px;" class="animable"><g id="freepik--desk--inject-38" style="transform-origin: 327.75px 317.42px 0px;" class="animable"><polygon points="302.8 331.91 227.21 288.27 352.71 215.65 428.29 259.29 302.8 331.91" style="fill: rgb(186, 104, 200); transform-origin: 327.75px 273.78px 0px;" id="elxly6y48ocfb" class="animable"></polygon><g id="elqurs6xjtk9b"><g style="opacity: 0.2; transform-origin: 327.75px 273.78px 0px;" class="animable"><polygon points="302.8 331.91 227.21 288.27 352.71 215.65 428.29 259.29 302.8 331.91" id="el60yqpcngfef" style="transform-origin: 327.75px 273.78px 0px;" class="animable"></polygon></g></g><polygon points="227.21 288.27 227.21 375.55 231.19 377.85 231.19 372.32 298.82 411.36 298.82 416.89 302.8 419.19 302.8 331.91 227.21 288.27" style="fill: rgb(186, 104, 200); transform-origin: 265.005px 353.73px 0px;" id="elc85web3cfs8" class="animable"></polygon><g id="eld6551hrx7kr"><g style="opacity: 0.45; transform-origin: 265.005px 353.73px 0px;" class="animable"><polygon points="227.21 288.27 227.21 375.55 231.19 377.85 231.19 372.32 298.82 411.36 298.82 416.89 302.8 419.19 302.8 331.91 227.21 288.27" id="el1aqqih0ntkb" style="transform-origin: 265.005px 353.73px 0px;" class="animable"></polygon></g></g><polygon points="231.19 377.85 235.17 375.55 235.17 374.62 231.19 372.32 231.19 377.85" style="fill: rgb(186, 104, 200); transform-origin: 233.18px 375.085px 0px;" id="elsm66f3bcow9" class="animable"></polygon><g id="elb1xtbnqn794"><g style="opacity: 0.6; transform-origin: 233.18px 375.085px 0px;" class="animable"><polygon points="231.19 377.85 235.17 375.55 235.17 374.62 231.19 372.32 231.19 377.85" id="ely782bt4o75j" style="transform-origin: 233.18px 375.085px 0px;" class="animable"></polygon></g></g><polygon points="302.8 419.19 306.78 416.89 306.78 411.36 424.32 343.33 424.32 348.87 428.29 346.57 428.29 259.29 302.8 331.91 302.8 419.19" style="fill: rgb(186, 104, 200); transform-origin: 365.545px 339.24px 0px;" id="eli6nz03ssux" class="animable"></polygon><g id="elh1t2kqd3ncc"><g style="opacity: 0.3; transform-origin: 365.545px 339.24px 0px;" class="animable"><polygon points="302.8 419.19 306.78 416.89 306.78 411.36 424.32 343.33 424.32 348.87 428.29 346.57 428.29 259.29 302.8 331.91 302.8 419.19" id="elqnprggvrma" style="transform-origin: 365.545px 339.24px 0px;" class="animable"></polygon></g></g><polygon points="424.32 348.87 420.34 346.57 420.34 345.63 424.32 343.33 424.32 348.87" style="fill: rgb(186, 104, 200); transform-origin: 422.33px 346.1px 0px;" id="elza5yu5lf5e8" class="animable"></polygon><g id="el4kexslcakjr"><g style="opacity: 0.6; transform-origin: 422.33px 346.1px 0px;" class="animable"><polygon points="424.32 348.87 420.34 346.57 420.34 345.63 424.32 343.33 424.32 348.87" id="el5lfky2y152" style="transform-origin: 422.33px 346.1px 0px;" class="animable"></polygon></g></g></g></g><g id="freepik--Things--inject-38" style="transform-origin: 334.969px 259.205px 0px;" class="animable"><g id="freepik--Sheets--inject-38" style="transform-origin: 299.26px 272.816px 0px;" class="animable"><g id="elprxhn47bk"><g style="opacity: 0.15; transform-origin: 299.268px 272.1px 0px;" class="animable"><path d="M275.19,270.49,302.05,286a1.67,1.67,0,0,0,1.51,0l19.77-11.41a.46.46,0,0,0,0-.88L296.47,258.2a1.67,1.67,0,0,0-1.51,0l-19.77,11.42A.46.46,0,0,0,275.19,270.49Z" id="el5l6wz47zqho" style="transform-origin: 299.268px 272.1px 0px;" class="animable"></path></g></g><g id="elomrxakvftw"><g style="opacity: 0.15; transform-origin: 299.281px 274.883px 0px;" class="animable"><path d="M275.19,273.26l26.86,15.51a1.67,1.67,0,0,0,1.51,0l19.77-11.41a.46.46,0,0,0,0-.88L296.47,261a1.61,1.61,0,0,0-1.51,0l-19.77,11.41A.46.46,0,0,0,275.19,273.26Z" id="elu8mn32w29vd" style="transform-origin: 299.281px 274.883px 0px;" class="animable"></path></g></g><path d="M275.19,271.88l26.86,15.5a1.61,1.61,0,0,0,1.51,0L323.33,276a.46.46,0,0,0,0-.87l-26.86-15.51a1.67,1.67,0,0,0-1.51,0L275.19,271A.46.46,0,0,0,275.19,271.88Z" style="fill: rgb(235, 235, 235); transform-origin: 299.252px 273.502px 0px;" id="elklrvwwdupy" class="animable"></path><path d="M295,259.59l-18.77,10.84,25.86,14.93a1.67,1.67,0,0,0,1.51,0l18.78-10.84-25.87-14.93A1.67,1.67,0,0,0,295,259.59Z" style="fill: rgb(224, 224, 224); transform-origin: 299.305px 272.473px 0px;" id="eltznsrsacftl" class="animable"></path><path d="M275.19,269.15l26.86,15.5a1.67,1.67,0,0,0,1.51,0l19.77-11.41a.46.46,0,0,0,0-.87l-26.86-15.51a1.67,1.67,0,0,0-1.51,0l-19.77,11.41C274.77,268.51,274.77,268.9,275.19,269.15Z" style="fill: rgb(250, 250, 250); transform-origin: 299.258px 270.754px 0px;" id="elz3cks028zcs" class="animable"></path></g><g id="freepik--Pencil--inject-38" style="transform-origin: 335.049px 287.059px 0px;" class="animable"><g id="freepik--shadow--inject-38"><path d="M323.44,293c-.86.44,1.3,2,2.37,1.37l18.75-11,2.25-2.37a.15.15,0,0,0-.15-.25l-4.34,1.33Z" style="opacity: 0.15; transform-origin: 335.049px 287.631px 0px;" class="animable"></path></g><path d="M342.49,280.38l4-.78a.12.12,0,0,1,.11.2l-2.71,3.07Z" style="fill: rgb(255, 168, 167); transform-origin: 344.561px 281.234px 0px;" id="el58b0p3rv5b4" class="animable"></path><path d="M346.6,279.8a.12.12,0,0,0-.11-.2l-.78.15h0a.7.7,0,0,1,.32.64v.07Z" style="fill: rgb(38, 50, 56); transform-origin: 346.172px 280.029px 0px;" id="elmt203lwba8q" class="animable"></path><path d="M329,291.41l.32-.19.4-.22,14.17-8.13a1.81,1.81,0,0,0-.11-1.33,1.86,1.86,0,0,0-1.29-1.16l-14.16,8.12-.76.44C328.08,288.68,329.5,291.15,329,291.41Z" style="fill: rgb(69, 90, 100); transform-origin: 335.77px 285.895px 0px;" id="el9zjxo5vyru" class="animable"></path><path d="M330.24,290.7l.73-.42c.22-.11.09-.64-.16-1.19-.33-.73-1-1.43-1.27-1.28l-.54.31-.19.11c.29-.15.94.55,1.27,1.28.25.53.37,1,.19,1.18h0Z" style="fill: rgb(235, 235, 235); transform-origin: 329.945px 289.244px 0px;" id="elgpqa0innpsr" class="animable"></path><path d="M330.42,290.59c.51-.26-.93-2.73-1.43-2.46l-.73.41c.5-.26,1.93,2.21,1.43,2.47Z" style="fill: rgb(186, 104, 200); transform-origin: 329.395px 289.561px 0px;" id="elp9amrfhh8j" class="animable"></path><path d="M329,291.41l.72-.41c.49-.26-.87-2.65-1.39-2.5l0,0-.73.42C328.08,288.68,329.5,291.15,329,291.41Z" style="fill: rgb(235, 235, 235); transform-origin: 328.713px 289.951px 0px;" id="eli0hsci8ol1p" class="animable"></path><g id="elprokej3t27"><path d="M346.62,279.66l-.14-.06-2.89,1.58-15,8.6s-.05,0-.07,0c.43.67.75,1.5.47,1.65l.32-.19.4-.22,14.17-8.13h0l2.71-3.07A.12.12,0,0,0,346.62,279.66Z" style="opacity: 0.15; transform-origin: 337.578px 285.516px 0px;" class="animable"></path></g><path d="M325.94,293.16l3.06-1.75c.21-.11.09-.64-.15-1.18-.34-.73-1-1.44-1.28-1.29h0l-3.07,1.76c-.61.35-.05,1.67.63,2.27A.73.73,0,0,0,325.94,293.16Z" style="fill: rgb(242, 143, 143); transform-origin: 326.674px 291.066px 0px;" id="el3ou3ja3xciy" class="animable"></path><g id="elacya4ljajon"><path d="M326.12,292.21a2.24,2.24,0,0,0-1.25-1.51.5.5,0,0,0-.46.06c-.46.43.08,1.65.72,2.21a.76.76,0,0,0,.79.2C326.15,293,326.24,292.68,326.12,292.21Z" style="opacity: 0.1; transform-origin: 325.205px 291.938px 0px;" class="animable"></path></g></g><g id="freepik--pencil--inject-38" style="transform-origin: 346.676px 287.094px 0px;" class="animable"><g id="freepik--shadow--inject-38"><path d="M334.9,293.1c-.87.45,1.32,2,2.41,1.4l19-11.14,2.29-2.41a.15.15,0,0,0-.16-.25l-4.4,1.34Z" style="opacity: 0.15; transform-origin: 346.676px 287.66px 0px;" class="animable"></path></g><path d="M354.23,280.35l4.06-.8a.13.13,0,0,1,.11.21l-2.74,3.11Z" style="fill: rgb(255, 168, 167); transform-origin: 356.328px 281.211px 0px;" id="elvnrevjorhul" class="animable"></path><path d="M358.4,279.76a.13.13,0,0,0-.11-.21l-.79.16h0a.69.69,0,0,1,.32.64v.08Z" style="fill: rgb(38, 50, 56); transform-origin: 357.963px 279.99px 0px;" id="elhqq30my5n2f" class="animable"></path><path d="M340.54,291.54l.33-.19.4-.23,14.39-8.25a1.84,1.84,0,0,0-.12-1.34,1.89,1.89,0,0,0-1.31-1.18l-14.37,8.24-.76.44C339.61,288.77,341.05,291.28,340.54,291.54Z" style="fill: rgb(69, 90, 100); transform-origin: 347.418px 285.945px 0px;" id="elc8ywcc8ey3" class="animable"></path><path d="M341.81,290.82l.74-.43c.21-.11.09-.65-.17-1.2-.33-.74-1-1.46-1.29-1.3l-.55.31-.19.12c.29-.16,1,.56,1.3,1.29.24.54.36,1.05.18,1.2h0Z" style="fill: rgb(235, 235, 235); transform-origin: 341.506px 289.344px 0px;" id="elqomkb6smzll" class="animable"></path><path d="M342,290.71c.51-.27-.95-2.77-1.46-2.5l-.74.42c.51-.27,2,2.24,1.46,2.51Z" style="fill: rgb(186, 104, 200); transform-origin: 340.953px 289.666px 0px;" id="el1np0n31ffdz" class="animable"></path><path d="M340.54,291.54l.73-.42c.5-.26-.88-2.69-1.41-2.53h0l-.73.43C339.61,288.77,341.05,291.28,340.54,291.54Z" style="fill: rgb(235, 235, 235); transform-origin: 340.252px 290.061px 0px;" id="elzfql0ykgc5" class="animable"></path><g id="elzj2t67cbj2"><path d="M358.42,279.62l-.13-.07-2.94,1.61-15.21,8.73c0-.05-.05-.05-.07,0,.43.67.76,1.52.47,1.67l.33-.19.4-.23,14.39-8.25h0l2.74-3.11A.12.12,0,0,0,358.42,279.62Z" style="opacity: 0.15; transform-origin: 349.256px 285.555px 0px;" class="animable"></path></g><path d="M337.43,293.32l3.11-1.78c.22-.11.1-.64-.15-1.2-.34-.74-1-1.46-1.29-1.31h0L336,290.82c-.62.35-.05,1.7.64,2.3A.72.72,0,0,0,337.43,293.32Z" style="fill: rgb(242, 143, 143); transform-origin: 338.195px 291.188px 0px;" id="els9t9xd0c359" class="animable"></path><g id="elplgvnt3chy"><path d="M337.62,292.35a2.25,2.25,0,0,0-1.27-1.53.5.5,0,0,0-.46.06c-.47.44.07,1.67.73,2.24a.74.74,0,0,0,.8.2C337.65,293.19,337.74,292.83,337.62,292.35Z" style="opacity: 0.1; transform-origin: 336.693px 292.076px 0px;" class="animable"></path></g></g><g id="freepik--Apple--inject-38" style="transform-origin: 302.791px 304.977px 0px;" class="animable"><g id="elqbyq5f1dfyc"><path d="M296.41,314.18c2.54,2,7.43,2.42,10.9,1S311.53,311,309,309s-7.44-2.42-10.9-1S293.86,312.21,296.41,314.18Z" style="opacity: 0.15; transform-origin: 302.703px 311.59px 0px;" class="animable"></path></g><path d="M299.84,298.14a5.82,5.82,0,0,0-5.53,3.5c-1.79,3.68,0,8.24,2.74,10.17,3.44,2.42,8.83,2.57,12-.33,3.51-3.2,3.77-9.26,1.37-11.92s-6.08-1.9-7.05-1.49C301.94,298.68,301,298.08,299.84,298.14Z" style="fill: rgb(186, 104, 200); transform-origin: 302.791px 305.643px 0px;" id="elwjghca214o" class="animable"></path><g id="eluor6gi1qra"><path d="M299.84,298.14a5.82,5.82,0,0,0-5.53,3.5c-1.79,3.68,0,8.24,2.74,10.17,3.44,2.42,8.83,2.57,12-.33,3.51-3.2,3.77-9.26,1.37-11.92s-6.08-1.9-7.05-1.49C301.94,298.68,301,298.08,299.84,298.14Z" style="fill: rgb(255, 255, 255); opacity: 0.6; transform-origin: 302.791px 305.643px 0px;" class="animable"></path></g><g id="elrv7tjo6pl"><path d="M307.07,310.74a11.6,11.6,0,0,1-12-1,7.69,7.69,0,0,0,1.94,2c3.44,2.42,8.83,2.57,12-.33a9.85,9.85,0,0,0,2.63-9.48C311.84,302.84,311.19,308.49,307.07,310.74Z" style="opacity: 0.1; transform-origin: 303.512px 307.75px 0px;" class="animable"></path></g><g id="elw7db73ewv"><path d="M298.33,299.43a3.68,3.68,0,0,0-3,2,8.9,8.9,0,0,0-.72,5.42c.55,3.27,3.71,5,4,4.71s-2-2.42-.73-5.67S299.86,299.56,298.33,299.43Z" style="fill: rgb(255, 255, 255); opacity: 0.2; transform-origin: 296.83px 305.51px 0px;" class="animable"></path></g><g id="eltxuxxef9w3"><path d="M297.61,300a4.85,4.85,0,0,0-2.33,2.91c-.29,1.08-.15,1.81,0,1.93s2.19-1.65,2.82-2.5C299,301.1,299.15,299.44,297.61,300Z" style="fill: rgb(255, 255, 255); opacity: 0.2; transform-origin: 296.941px 302.367px 0px;" class="animable"></path></g><path d="M301.34,300.94c-.51-.4-1-.61-1.24,0s1.1,1.56,2.6,1.13,2-1.42,2-1.91a2.75,2.75,0,0,1-1.68,1.19A2.49,2.49,0,0,1,301.34,300.94Z" style="fill: rgb(186, 104, 200); transform-origin: 302.387px 301.17px 0px;" id="el9z3hfq5m2ya" class="animable"></path><g id="elizzd84t5u7"><path d="M301.34,300.94c-.51-.4-1-.61-1.24,0s1.1,1.56,2.6,1.13,2-1.42,2-1.91a2.75,2.75,0,0,1-1.68,1.19A2.49,2.49,0,0,1,301.34,300.94Z" style="opacity: 0.1; transform-origin: 302.387px 301.17px 0px;" class="animable"></path></g><path d="M302.7,301.68a14.07,14.07,0,0,0-.68-4.09,7.62,7.62,0,0,0-2.2-3.4,4,4,0,0,0-1.64-.25c-.76,0-1.68.53-1.43.82a15.74,15.74,0,0,1,2.7,1.77,8.86,8.86,0,0,1,2.63,5.15A.58.58,0,0,0,302.7,301.68Z" style="fill: rgb(55, 71, 79); transform-origin: 299.703px 297.852px 0px;" id="elm7w3vs60cx" class="animable"></path><path d="M299.77,294.17a.13.13,0,0,0-.08,0h0a4.36,4.36,0,0,0-1.5-.19,2.09,2.09,0,0,0-1.41.56c0,.11.12.26.81.36a4.37,4.37,0,0,0,2-.19C299.89,294.56,300,294.29,299.77,294.17Z" style="fill: rgb(69, 90, 100); transform-origin: 298.338px 294.459px 0px;" id="elz892aszeca" class="animable"></path><g id="el5cr73db1myl"><path d="M301.7,299.27a7.89,7.89,0,0,0-3.7-3.81h0a7.92,7.92,0,0,1,1.45,1.07,8.86,8.86,0,0,1,2.63,5.15.58.58,0,0,0,.62,0s0-.52-.08-1.28C302.58,301.11,302.25,300.86,301.7,299.27Z" style="opacity: 0.1; transform-origin: 300.35px 298.615px 0px;" class="animable"></path></g><path d="M302.33,298.67a3.6,3.6,0,0,0,3.35-1.31,3.65,3.65,0,0,0,.37-3.2,3.38,3.38,0,0,0-2.95.93A4,4,0,0,0,302.33,298.67Z" style="fill: rgb(186, 104, 200); transform-origin: 304.227px 296.412px 0px;" id="elm9ab49dr4ip" class="animable"></path><g id="el9y3lpqazdjb"><path d="M302.33,298.67a3.6,3.6,0,0,0,3.35-1.31,3.65,3.65,0,0,0,.37-3.2,3.38,3.38,0,0,0-2.95.93A4,4,0,0,0,302.33,298.67Z" style="opacity: 0.1; transform-origin: 304.227px 296.412px 0px;" class="animable"></path></g><path d="M306.05,294.16a3.38,3.38,0,0,0-2.95.93,4,4,0,0,0-.77,3.58A10,10,0,0,1,306.05,294.16Z" style="fill: rgb(186, 104, 200); transform-origin: 304.121px 296.393px 0px;" id="elxkwno7ooyo" class="animable"></path></g><g id="freepik--Laptop--inject-38" style="transform-origin: 347.348px 236.938px 0px;" class="animable"><g id="elxohyeyznn2"><path d="M386.36,241.25c-6.43-3.71-31.5-18.12-31.5-18.12l-50.58,29.18c-.74.43-.74,1.12,0,1.54l30.1,17.32a3,3,0,0,0,2.68,0l49.3-28.37C387.09,242.37,387.1,241.68,386.36,241.25Z" style="opacity: 0.15; transform-origin: 345.318px 247.307px 0px;" class="animable"></path></g><path d="M304.53,249.27v1a2.74,2.74,0,0,0,1.36,2.36l25.95,14.93a2.75,2.75,0,0,0,2.72,0L382.16,240a2.73,2.73,0,0,0,1.36-2.36V237l-50.32,29Z" style="fill: rgb(235, 235, 235); transform-origin: 344.025px 252.459px 0px;" id="elvcqyavt0hxo" class="animable"></path><path d="M383.52,237,355.3,220.73a1.62,1.62,0,0,0-1.62,0l-49,28.27a.36.36,0,0,0,0,.62l28.49,16.46Z" style="fill: rgb(250, 250, 250); transform-origin: 344.012px 243.297px 0px;" id="elcsq2a4f03v4" class="animable"></path><polygon points="332.94 263.68 317.72 254.9 362.23 229.2 377.53 237.93 332.94 263.68" style="fill: rgb(224, 224, 224); transform-origin: 347.625px 246.44px 0px;" id="elcgahii5yi0k" class="animable"></polygon><polygon points="325.46 239.25 325.74 239.42 333.2 243.72 346.47 236.06 346.75 235.91 339 231.44 325.46 239.25" style="fill: rgb(224, 224, 224); transform-origin: 336.105px 237.58px 0px;" id="el3xry1rke1zl" class="animable"></polygon><polygon points="325.74 239.42 333.2 243.72 346.47 236.06 339 231.76 325.74 239.42" style="fill: rgb(230, 230, 230); transform-origin: 336.105px 237.74px 0px;" id="elvh4vhpq3lmc" class="animable"></polygon><path d="M333.2,266.07v1.81a2.74,2.74,0,0,0,1.36-.36L382.16,240a2.73,2.73,0,0,0,1.36-2.36V237Z" style="fill: rgb(235, 235, 235); transform-origin: 358.359px 252.439px 0px;" id="eloyx1a0y92a" class="animable"></path><path d="M333.2,266.07v1.81a2.74,2.74,0,0,0,1.36-.36L382.16,240a2.73,2.73,0,0,0,1.36-2.36V237Z" style="fill: rgb(224, 224, 224); transform-origin: 358.359px 252.439px 0px;" id="eljl6dw6c908" class="animable"></path><path d="M334,266.48a3.24,3.24,0,0,0,2.78-.22l47.39-27.36a3.23,3.23,0,0,0,1.56-2.25l5.19-30.94a3.27,3.27,0,0,0,.05-.53,3.22,3.22,0,0,0-1-2.29l-49.25,28.43a2.41,2.41,0,0,0-1.15,1.67Z" style="fill: rgb(186, 104, 200); transform-origin: 362.484px 234.793px 0px;" id="elcsageanyarl" class="animable"></path><g id="el9e2yw2o88u6"><g style="opacity: 0.7; transform-origin: 362.484px 234.793px 0px;" class="animable"><path d="M334,266.48a3.24,3.24,0,0,0,2.78-.22l47.39-27.36a3.23,3.23,0,0,0,1.56-2.25l5.19-30.94a3.27,3.27,0,0,0,.05-.53,3.22,3.22,0,0,0-1-2.29l-49.25,28.43a2.41,2.41,0,0,0-1.15,1.67Z" style="fill: rgb(255, 255, 255); transform-origin: 362.484px 234.793px 0px;" id="eljq12hi0cd1a" class="animable"></path></g></g><path d="M333.2,266.08l.33.18.44.22L339.58,233a2.41,2.41,0,0,1,1.15-1.67L390,202.89a3.21,3.21,0,0,0-.65-.5L340,230.88a2.35,2.35,0,0,0-1.16,1.66Z" style="fill: rgb(250, 250, 250); transform-origin: 361.6px 234.436px 0px;" id="eloqmpuobqfbq" class="animable"></path><path d="M360.66,237.91c.35-2.07,2.49-4.82,4.78-6.14s3.86-.72,3.52,1.35-2.49,4.83-4.78,6.15S360.31,240,360.66,237.91Z" style="fill: rgb(186, 104, 200); transform-origin: 364.809px 235.521px 0px;" id="elbhzyh967y4" class="animable"></path></g><g id="freepik--Books--inject-38" style="transform-origin: 389.379px 259.35px 0px;" class="animable"><g id="freepik--shadow--inject-38"><path d="M382.17,283.42,358.84,270a.37.37,0,0,1,0-.7l36.54-21.1a1.36,1.36,0,0,1,1.21,0l23.33,13.47c.33.2.33.51,0,.7l-36.54,21.1A1.36,1.36,0,0,1,382.17,283.42Z" style="opacity: 0.15; transform-origin: 389.379px 265.824px 0px;" class="animable"></path></g><g id="freepik--Book--inject-38" style="transform-origin: 389.838px 262.201px 0px;" class="animable"><polygon points="362.56 269.25 382.78 280.78 416.2 261.61 395.97 250.07 362.56 269.25" id="eloa1ddvq1q6o" style="transform-origin: 389.38px 265.425px 0px;" class="animable"></polygon><path d="M383,279.91l-19.51-11.2a8.14,8.14,0,0,0-.1-5.06l19.38,11.08A19.25,19.25,0,0,1,383,279.91Z" style="fill: rgb(245, 245, 245); transform-origin: 373.234px 271.779px 0px;" id="elhaic2q59y2r" class="animable"></path><path d="M381.79,273.15a4.12,4.12,0,0,1,1.87,3.22v3.77c0,1.19-.84,1.67-1.87,1.08l-19.23-11v-.93l19,10.82c.62.36,1.12.07,1.12-.65l0-3.49a2.48,2.48,0,0,0-1.12-1.94l-18.95-10.82v-1.06Z" style="fill: rgb(38, 50, 56); transform-origin: 373.109px 271.811px 0px;" id="ely9syzlearzl" class="animable"></path><path d="M362.56,262.11,396,242.93l19.23,11a4.1,4.1,0,0,1,1.88,3.23V261a1.29,1.29,0,0,1-.55,1.2l-33.42,19.18a1.29,1.29,0,0,0,.55-1.2v-3.78a4.13,4.13,0,0,0-1.87-3.23Z" style="fill: rgb(69, 90, 100); transform-origin: 389.838px 262.154px 0px;" id="elp3c1mjsoy3h" class="animable"></path><path d="M383.11,274.54a3.76,3.76,0,0,1,.55,1.83v3.78a1.29,1.29,0,0,1-.55,1.2l33.42-19.18a1.29,1.29,0,0,0,.55-1.2V257.2a3.77,3.77,0,0,0-.55-1.84Z" style="fill: rgb(55, 71, 79); transform-origin: 400.098px 268.355px 0px;" id="el8wiksrczag6" class="animable"></path></g><g id="freepik--book--inject-38" style="transform-origin: 389.814px 252.982px 0px;" class="animable"><polygon points="364.54 259.51 383.3 270.2 414.28 252.42 395.52 241.73 364.54 259.51" style="fill: rgb(186, 104, 200); transform-origin: 389.41px 255.965px 0px;" id="elkgcakhcohy" class="animable"></polygon><g id="elujs9hqx0ii"><polygon points="364.54 259.51 383.3 270.2 414.28 252.42 395.52 241.73 364.54 259.51" style="opacity: 0.35; transform-origin: 389.41px 255.965px 0px;" class="animable"></polygon></g><path d="M383.51,269.39,365.42,259a7.48,7.48,0,0,0-.1-4.69l18,10.27A18,18,0,0,1,383.51,269.39Z" style="fill: rgb(255, 255, 255); transform-origin: 374.455px 261.85px 0px;" id="elp4hupg2r2og" class="animable"></path><path d="M382.37,263.12a3.81,3.81,0,0,1,1.74,3v3.5c0,1.1-.78,1.55-1.74,1l-17.83-10.23v-.87l17.59,10c.58.33,1.05.06,1-.6V265.7a2.28,2.28,0,0,0-1.05-1.79l-17.57-10v-1Z" style="fill: rgb(186, 104, 200); transform-origin: 374.311px 261.883px 0px;" id="ele0hjc73k38" class="animable"></path><g id="ell6ixusdgfqk"><path d="M382.37,263.12a3.81,3.81,0,0,1,1.74,3v3.5c0,1.1-.78,1.55-1.74,1l-17.83-10.23v-.87l17.59,10c.58.33,1.05.06,1-.6V265.7a2.28,2.28,0,0,0-1.05-1.79l-17.57-10v-1Z" style="opacity: 0.2; transform-origin: 374.311px 261.883px 0px;" class="animable"></path></g><path d="M364.54,252.89l31-17.78,17.82,10.23a3.81,3.81,0,0,1,1.74,3v3.5a1.2,1.2,0,0,1-.51,1.12l-31,17.78a1.2,1.2,0,0,0,.51-1.12v-3.5a3.81,3.81,0,0,0-1.74-3Z" style="fill: rgb(186, 104, 200); transform-origin: 389.824px 252.924px 0px;" id="elrg5rt8bm0l" class="animable"></path><g id="elfs0p6pr1qrg"><path d="M364.54,252.89l31-17.78,17.82,10.23a3.81,3.81,0,0,1,1.74,3v3.5a1.2,1.2,0,0,1-.51,1.12l-31,17.78a1.2,1.2,0,0,0,.51-1.12v-3.5a3.81,3.81,0,0,0-1.74-3Z" style="fill: rgb(255, 255, 255); opacity: 0.3; transform-origin: 389.824px 252.924px 0px;" class="animable"></path></g><path d="M383.6,264.41a3.45,3.45,0,0,1,.51,1.7v3.5a1.2,1.2,0,0,1-.51,1.12l31-17.78a1.2,1.2,0,0,0,.51-1.12v-3.5a3.45,3.45,0,0,0-.51-1.7Z" style="fill: rgb(186, 104, 200); transform-origin: 399.359px 258.68px 0px;" id="ellm0v1f9mxyg" class="animable"></path><g id="elqg9mvml2zxi"><path d="M383.6,264.41a3.45,3.45,0,0,1,.51,1.7v3.5a1.2,1.2,0,0,1-.51,1.12l31-17.78a1.2,1.2,0,0,0,.51-1.12v-3.5a3.45,3.45,0,0,0-.51-1.7Z" style="opacity: 0.1; transform-origin: 399.359px 258.68px 0px;" class="animable"></path></g></g></g><g id="freepik--Coffee--inject-38" style="transform-origin: 260.006px 276.947px 0px;" class="animable"><g id="freepik--shadow--inject-38"><path d="M266.91,285c3.92,2.17,3.92,5.69,0,7.86a16.3,16.3,0,0,1-14.2,0c-3.92-2.17-3.92-5.69,0-7.86A16.23,16.23,0,0,1,266.91,285Z" style="opacity: 0.15; transform-origin: 259.809px 288.928px 0px;" class="animable"></path></g><g id="freepik--coffee--inject-38" style="transform-origin: 260.061px 275.863px 0px;" class="animable"><path d="M253.72,272.11a20.62,20.62,0,0,1,12.49.32c3.36,1.38,3.31,3.48-.12,4.68a20.59,20.59,0,0,1-12.49-.32C250.12,275.41,250.18,273.31,253.72,272.11Z" style="fill: rgb(38, 50, 56); transform-origin: 259.861px 274.609px 0px;" id="elqmfhce02mgi" class="animable"></path><path d="M251,267.79l18,.48-1.91,21.17h0c-.1.77-.84,1.52-2.23,2.07a15.92,15.92,0,0,1-10.8-.28c-1.41-.63-2.13-1.41-2.2-2.18h0Z" style="fill: rgb(250, 250, 250); transform-origin: 260px 280.055px 0px;" id="elcypj8xpp32s" class="animable"></path><path d="M269,268.27l-.39,4.3a7.68,7.68,0,0,1-1.52.77,21.92,21.92,0,0,1-14.34-.37l-.47-.23a9.07,9.07,0,0,1-1.11-.67l-.17-4.28Z" style="fill: rgb(235, 235, 235); transform-origin: 260px 271.078px 0px;" id="elp83bn0yasyf" class="animable"></path><path d="M249.88,268.38l.08-3.24,2.1.06a8.12,8.12,0,0,1,.93-.4,21.81,21.81,0,0,1,14.34.37c.32.14.6.29.87.44l2,.06-.09,3.24h0c0,1-1,2.09-3,2.84a21.86,21.86,0,0,1-14.34-.37C250.83,270.52,249.85,269.44,249.88,268.38Z" style="fill: rgb(55, 71, 79); transform-origin: 260.039px 268.273px 0px;" id="elkqj425tchqp" class="animable"></path><path d="M253.06,262.3a21.85,21.85,0,0,1,14.33.37c3.86,1.71,3.79,4.33-.15,5.84a21.89,21.89,0,0,1-14.33-.37C248.92,266.42,249,263.81,253.06,262.3Z" style="fill: rgb(69, 90, 100); transform-origin: 260.104px 265.404px 0px;" id="elnof6w4ubt3" class="animable"></path><path d="M251.85,264.41h0l.72-2.66,5.15.14a20.88,20.88,0,0,1,5.12.13l5,.13.59,2.69h0c.3,1-.5,2-2.4,2.67a18.77,18.77,0,0,1-11.82-.3C252.26,266.41,251.49,265.37,251.85,264.41Z" style="fill: rgb(55, 71, 79); transform-origin: 260.129px 265.037px 0px;" id="elq1cdot02fkb" class="animable"></path><path d="M254.84,260.1a18.19,18.19,0,0,1,10.86.28c2.92,1.19,2.87,3-.1,4a18.15,18.15,0,0,1-10.86-.28C251.72,262.93,251.77,261.13,254.84,260.1Z" style="fill: rgb(69, 90, 100); transform-origin: 260.182px 262.242px 0px;" id="elp91brfi8pe" class="animable"></path><path d="M253.56,262.08a.93.93,0,0,0,.33.39,4.83,4.83,0,0,0,1.24.67,15.81,15.81,0,0,0,5.08.9,15.07,15.07,0,0,0,5-.64,4.62,4.62,0,0,0,1.23-.6c.25-.2.32-.34.32-.38s-.25-.55-1.49-1.06a15.13,15.13,0,0,0-5-.89,15.52,15.52,0,0,0-5.12.64C253.9,261.53,253.57,262,253.56,262.08Z" style="fill: rgb(38, 50, 56); transform-origin: 260.16px 262.252px 0px;" id="elpnwoffjtcrk" class="animable"></path><path d="M253.89,262.47a4.83,4.83,0,0,0,1.24.67,15.81,15.81,0,0,0,5.08.9,15.07,15.07,0,0,0,5-.64,4.62,4.62,0,0,0,1.23-.6,4.21,4.21,0,0,0-1.19-.67,15.11,15.11,0,0,0-5-.9,15.56,15.56,0,0,0-5.12.64A4.72,4.72,0,0,0,253.89,262.47Z" style="fill: rgb(55, 71, 79); transform-origin: 260.166px 262.633px 0px;" id="elyyc3j085w8d" class="animable"></path><g id="elm5qvh7pdznh"><g style="opacity: 0.5; transform-origin: 256.535px 262.84px 0px;" class="animable"><path d="M256.94,262.62a1.55,1.55,0,0,0-1.2-.26c-.22.12-.05.43.39.7a1.56,1.56,0,0,0,1.2.26C257.55,263.19,257.38,262.88,256.94,262.62Z" id="elhxe4betk2i" style="transform-origin: 256.535px 262.84px 0px;" class="animable"></path></g></g><path d="M268,282.61c0,.79-.84,1.57-2.46,2.14a19.41,19.41,0,0,1-11.77-.31c-1.63-.65-2.44-1.46-2.42-2.26l-.31-7.8c0,.85.83,1.72,2.57,2.41a20.59,20.59,0,0,0,12.49.32c1.72-.6,2.59-1.42,2.61-2.27Z" style="fill: rgb(69, 90, 100); transform-origin: 259.875px 279.947px 0px;" id="elxpx8ov6oe0q" class="animable"></path><path d="M262.48,282.93a13,13,0,0,0,.74-1.31,3.9,3.9,0,0,1,2.08-1.74.25.25,0,0,1,.31.12,3.05,3.05,0,0,1-3.9,3.75s-.06-.13,0-.15A2.5,2.5,0,0,0,262.48,282.93Z" style="fill: rgb(186, 104, 200); transform-origin: 263.709px 281.887px 0px;" id="elsthkk6l0nyr" class="animable"></path><path d="M264.82,279.62a4.28,4.28,0,0,0-1.31.76,3.94,3.94,0,0,0-1,1.25,3.76,3.76,0,0,1-1.21,1.51.24.24,0,0,1-.35-.06,2.69,2.69,0,0,1,.71-3.26,2.76,2.76,0,0,1,3.16-.64A.24.24,0,0,1,264.82,279.62Z" style="fill: rgb(186, 104, 200); transform-origin: 262.82px 281.063px 0px;" id="el62011nugy68" class="animable"></path></g></g></g></g></g><g id="freepik--Character--inject-38" style="transform-origin: 186.951px 292.633px 0px;" class="animable"><g id="freepik--character--inject-38" style="transform-origin: 186.951px 292.633px 0px;" class="animable"><path d="M245.93,194.29l5-10.76a3.68,3.68,0,0,1,3.64,1.58l-4.75,10.65Z" style="fill: rgb(224, 224, 224); transform-origin: 250.25px 189.623px 0px;" id="eljel92o4zs4j" class="animable"></path><path d="M214,224.32a33.51,33.51,0,0,0-3.88,10.19c-.85,4.93,1.81,9.9,5.19,8.94s7.25-5.53,10.12-10.15,13.68-23.21,13.68-23.21a9,9,0,0,0,5.67-1.8c2.32-2,6.24-12.94,6.24-12.94s-2.51.08-5.35.29c1.07-1.73.79-3.3.24-3.45-.73-.19-2.58,1.24-4,1.81-2.36.95-5.26,1-5.8,1.44-1.58,1.22-2.91,5.37-5,8.2C225.15,212,214,224.32,214,224.32Z" style="fill: rgb(255, 168, 167); transform-origin: 230.49px 217.873px 0px;" id="elb04qciqclfh" class="animable"></path><path d="M183.5,207.1c4.22,1.09,8,4.47,12.34,8.13S211.35,227,211.35,227l7.94-8.59L229.81,227s-5,9-9.6,14.07c-3.85,4.29-5,4.32-11.17.94-5.5-3-23.51-13-23.51-13Z" style="fill: rgb(186, 104, 200); transform-origin: 206.654px 225.766px 0px;" id="elvr9fe3l22ns" class="animable"></path><g id="el0eetk7oj4yn"><path d="M183.5,207.1c4.22,1.09,8,4.47,12.34,8.13S211.35,227,211.35,227l7.94-8.59L229.81,227s-5,9-9.6,14.07c-3.85,4.29-5,4.32-11.17.94-5.5-3-23.51-13-23.51-13Z" style="fill: rgb(255, 255, 255); opacity: 0.8; transform-origin: 206.654px 225.766px 0px;" class="animable"></path></g><g id="elvy3p6r5bmoe"><path d="M211.35,227a23.27,23.27,0,0,0-3.84,6.72A14.7,14.7,0,0,1,210,226Z" style="opacity: 0.1; transform-origin: 209.432px 229.859px 0px;" class="animable"></path></g><path d="M239.14,210.09a6.26,6.26,0,0,1-2.67-3A4.39,4.39,0,0,0,240.3,204c.8-2.89-.13-3.83,2-5.05a13,13,0,0,0,3.5-3.08l5-.23s-1.61,6.55-2.53,8.86S244.85,210.33,239.14,210.09Z" style="fill: rgb(242, 143, 143); transform-origin: 243.635px 202.871px 0px;" id="elf7y4lt0di0k" class="animable"></path><path d="M246.31,193.78s3.16-.65,4.92-.12c.76.22,1.25.68,1,2.19a2.83,2.83,0,0,1-1.57,1.84,2.34,2.34,0,0,1,1,1.95,2.91,2.91,0,0,1-2,2.5,1.76,1.76,0,0,1,.29,1.78,3.11,3.11,0,0,1-2.13,1.65,2.76,2.76,0,0,1-.33,2c-.6.81-3,1.8-5,2.1a1.58,1.58,0,0,1-1.82-2.34,4.2,4.2,0,0,1,1.8-1.44,2.06,2.06,0,0,1-.62-1.75c.19-1,2.39-1.73,2.39-1.73s-1.47-.73-1.24-2,2.85-2,2.85-2a1.41,1.41,0,0,1-1.4-1.07C245.54,196.05,246.36,194.75,246.31,193.78Z" style="fill: rgb(255, 168, 167); transform-origin: 246.365px 201.6px 0px;" id="els59enconlt" class="animable"></path><g id="freepik--Legs--inject-38" style="transform-origin: 169.91px 342.369px 0px;" class="animable"><path d="M137,395.52s-2.35-23.87-.26-37.7c1.8-11.86,3.79-16.77,4.16-19.47,0,0,3.32-30.89,3.88-54.63.27-11.25.86-17.12,9.48-30l3.24-3.75c.51,4.38,4.7,4.25,10.64,5.2,5.73.91,13,.09,21.65-2.41,1.38,11.33,2.55,35.85,3.67,59.31.55,11.46-.09,21.06-.24,28.4-.21,10-2.94,48.93-2.94,48.93l-.06,1.65c0,1.82.35,3.1,1.49,6.05a35.49,35.49,0,0,0,6.09,10.4c.82.91,6.49,6,7.24,7.09,2.42,2.91-2.71,4.46-6.49,3.9-4-.59-10.2-2.19-11.93-4.65-1.15-1.64-2-7.35-3.14-9-4-5.61-5.64-8-5.65-9.79,0-3.21,1.11-4.46,1.53-6.27-.28-3.78-7-23.84-7-34.86,0-5.25,1.6-14.49,1.6-14.49L169,297.89c-2,10.68-6,37.75-7.35,45.41-1.91,10.55-8,28.26-11.95,42.2-1.49,5.24-2.22,7.58-2.68,11,0,0-.14,1.23-.14,1.24-.1,1.57-1,18.27-1.68,21.78-1.39,7.35-7.92,6.33-8.89.36-.82-5.08.51-20.75.56-22.67Z" style="fill: rgb(255, 168, 167); transform-origin: 170.768px 337.334px 0px;" id="eln9ys8fz6hkb" class="animable"></path><path d="M136.75,395.41c-1.85,0-.73,7.17-1.27,11.76-.58,4.92-2.24,8.5-2.76,12.53a16.44,16.44,0,0,0,1.4,10.37c1.25,3,7.66,7.1,10.17,2.91s3.12-9,2.9-13.6c-.23-4.76-.47-8.24-.52-11.85,0-3.19,2.51-10.63.13-11.12l-.14,1.24c-.88,1.7-9.09,2.77-10-.54Z" style="fill: rgb(55, 71, 79); transform-origin: 140.123px 415.09px 0px;" id="elgbbwolw3wh" class="animable"></path><path d="M177.14,398.81c-.59,2.29-.09,8.61-.09,8.61s1,2.19,4.5,3.69l1.71-8.76Z" style="fill: rgb(38, 50, 56); transform-origin: 180.057px 404.959px 0px;" id="el4qh91e0vcca" class="animable"></path><polygon points="181.55 411.11 189.41 408.65 191.39 401.72 182.53 406.06 181.55 411.11" id="ellgdlhqq216h" style="transform-origin: 186.47px 406.415px 0px;" class="animable"></polygon><path d="M190,390.94l.06-1.64c1.05.53,3.28,9.13,6.37,15.05,2.81,5.4,8.5,8.47,10.33,10.83,2.45,3.16-2.44,7.12-10.18,5.35-3.85-.87-9.65-3.42-11.19-6s-2-7.4-3.29-9.33-4.31-4.17-4.93-6.35a11.9,11.9,0,0,1,.1-6c.63-2,1.2-4.36,1.87-4.13l0,1.5c.5,1.07,2.36,2.33,6.28,2.59C187.28,392.89,189.09,392.63,190,390.94Z" style="fill: rgb(55, 71, 79); transform-origin: 192.117px 404.836px 0px;" id="el8cybr4f13dd" class="animable"></path></g><path d="M191.14,254.34c1,6.46,1.4,15.44,2.35,32.56s1.56,35,1.29,44.21-.94,17.91-.94,17.91-9.42,7.38-27.72,7.39c-22.86,0-28.73-7.39-28.73-7.39l2.75-12.31s2.77-41.82,2.64-54.14,3.77-21.11,9.75-29.56Z" style="fill: rgb(69, 90, 100); transform-origin: 166.117px 304.711px 0px;" id="el2dhxkortb4a" class="animable"></path><path d="M163.19,206.23l-6.56.29c1.94,11.54-6.87,21.94-6.87,21.94l3.63,18.28c-.2.32.55,2.93-.83,6.24,6.33,8.46,31.56,9.49,38.61,1.33a55.3,55.3,0,0,0-1.64-7.71l1.36-9c9.71-10.13-.13-23.77-7.49-30.51l-7.31-1.74Z" style="fill: rgb(186, 104, 200); transform-origin: 172.354px 232.631px 0px;" id="elsh14nphnz1f" class="animable"></path><g id="elps0cmqobrb"><path d="M163.19,206.23l-6.56.29c1.94,11.54-6.87,21.94-6.87,21.94l3.63,18.28c-.2.32.55,2.93-.83,6.24,6.33,8.46,31.56,9.49,38.61,1.33a55.3,55.3,0,0,0-1.64-7.71l1.36-9c9.71-10.13-.13-23.77-7.49-30.51l-7.31-1.74Z" style="fill: rgb(255, 255, 255); opacity: 0.8; transform-origin: 172.354px 232.631px 0px;" class="animable"></path></g><path d="M180.55,222.49c-9.34-2.91-17.65-12-18.23-17.6l-8.9,2.47-4.83,23.86s2.81,10.68,3.79,14.5a10.57,10.57,0,0,1-1.31,8.62,84.2,84.2,0,0,0-5.89,11.15s3.72,3.16,13.68,5.3a56.85,56.85,0,0,0,17.1.65l3.14-12.1,1.8,11.21s7.29-.58,12.65-4.5l-3.18-19.43.77-8.79a16.16,16.16,0,0,0,4.3-9.35c.39-5.49-1.72-9.89-5.6-15s-6.34-6.39-6.34-6.39l-4.85-2.21A25,25,0,0,1,180.55,222.49Z" style="fill: rgb(186, 104, 200); transform-origin: 170.334px 238.34px 0px;" id="elnmdfroahym" class="animable"></path><g id="elcn4ewu2c48t"><path d="M180.55,222.49c-9.34-2.91-17.65-12-18.23-17.6l-8.9,2.47-4.83,23.86s2.81,10.68,3.79,14.5a10.57,10.57,0,0,1-1.31,8.62,84.2,84.2,0,0,0-5.89,11.15s3.72,3.16,13.68,5.3a56.85,56.85,0,0,0,17.1.65l3.14-12.1,1.8,11.21s7.29-.58,12.65-4.5l-3.18-19.43.77-8.79a16.16,16.16,0,0,0,4.3-9.35c.39-5.49-1.72-9.89-5.6-15s-6.34-6.39-6.34-6.39l-4.85-2.21A25,25,0,0,1,180.55,222.49Z" style="opacity: 0.2; transform-origin: 170.334px 238.34px 0px;" class="animable"></path></g><path d="M176,213.26s-8.79-1.94-12.54-7.26l0-4.41c-2.2.37-2.7,3.79-2.7,3.79s-.57,4.73,2,7.62,7.5,1.52,7.5,1.52,2,2.32,3,2.59S176,213.26,176,213.26Z" style="fill: rgb(186, 104, 200); transform-origin: 168.354px 209.355px 0px;" id="elx1ko5o8fq" class="animable"></path><g id="el8jwk2ait1"><path d="M176,213.26s-8.79-1.94-12.54-7.26l0-4.41c-2.2.37-2.7,3.79-2.7,3.79s-.57,4.73,2,7.62,7.5,1.52,7.5,1.52,2,2.32,3,2.59S176,213.26,176,213.26Z" style="fill: rgb(255, 255, 255); opacity: 0.65; transform-origin: 168.354px 209.355px 0px;" class="animable"></path></g><path d="M176,213.26c1.27-1.17,2-4.75,1.22-7.84,0-.24,0-2.6,0-2.6a1.71,1.71,0,0,1,1.41.58l2.54,2.37a7.66,7.66,0,0,1,1.1,4.36,3.58,3.58,0,0,1-1.91,3,7.8,7.8,0,0,1-.11,2.74C179.87,216.57,176,213.26,176,213.26Z" style="fill: rgb(186, 104, 200); transform-origin: 179.141px 209.393px 0px;" id="elp5b4nh1xbi9" class="animable"></path><g id="elh6jdu959cw8"><path d="M176,213.26c1.27-1.17,2-4.75,1.22-7.84,0-.24,0-2.6,0-2.6a1.71,1.71,0,0,1,1.41.58l2.54,2.37a7.66,7.66,0,0,1,1.1,4.36,3.58,3.58,0,0,1-1.91,3,7.8,7.8,0,0,1-.11,2.74C179.87,216.57,176,213.26,176,213.26Z" style="fill: rgb(255, 255, 255); opacity: 0.65; transform-origin: 179.141px 209.393px 0px;" class="animable"></path></g><path d="M183.52,188.55c2.11-2.22,3.51-5,5.15-7.53A15.17,15.17,0,0,1,191,177.8c.88-.78,2-1.29,2.83-2.13a6.86,6.86,0,0,0,2.14-4.25,4.19,4.19,0,0,0-2.17-4,6.17,6.17,0,0,0,1.31-4.86,5.81,5.81,0,0,0-7-4.78c1-2.2-.21-5-2.25-6.22a8.57,8.57,0,0,0-7-.57,25.78,25.78,0,0,0-6.26,3.27l-.11.07c-5.05,3.24-10.81,4.24-15.34,8.47a18.47,18.47,0,0,0-6,15c.52,11.9,10.13,18,13.37,21.51.16.16,1.26,0,1.47.06l3.29.15c.79,0,1.8.47,2.56.22,1-.31,1.75-1.64,2.35-2.43C176.77,193.74,180.56,191.64,183.52,188.55Z" style="fill: rgb(38, 50, 56); transform-origin: 173.541px 175.154px 0px;" id="elyryt62nfs9j" class="animable"></path><path d="M157.54,156c4.07,2.81,2.64,6.93-.31,11.2s-6.31,7.06-10.38,4.25A9.4,9.4,0,0,1,157.54,156Z" style="fill: rgb(38, 50, 56); transform-origin: 151.564px 163.549px 0px;" id="el0vjpatl4ylop" class="animable"></path><path d="M191.36,184.6c-.25,11-3.81,13.7-5.6,14.48s-5.23.3-8.58-.25v6.59s1.92,4.83-1.22,7.84c-7.22-1.29-11-5-12-6.16a2.33,2.33,0,0,1-.56-1.51V190.08s-1.83,1.94-5.08-.28a6,6,0,0,1-1.53-8.69c1.41-1.67,5-1.78,6.72.8,1,1.89,1.1,3.8,2.19,3,2.89-2.08,1.34-6.82,4.83-9.16h0a23.49,23.49,0,0,1,3.55-1.56c6.24-2.15,11.63-4,12.94-8.22C189.47,167.44,191.67,171.64,191.36,184.6Z" style="fill: rgb(255, 168, 167); transform-origin: 173.475px 189.615px 0px;" id="elh83awwxte9r" class="animable"></path><path d="M179.53,182a1.48,1.48,0,1,1-1.55-1.47A1.52,1.52,0,0,1,179.53,182Z" style="fill: rgb(38, 50, 56); transform-origin: 178.051px 182.01px 0px;" id="elehc37zy3bka" class="animable"></path><path d="M189.93,181.52a1.41,1.41,0,0,1-1.32,1.51,1.34,1.34,0,0,1-1.47-1.38,1.4,1.4,0,1,1,2.79-.13Z" style="fill: rgb(38, 50, 56); transform-origin: 188.531px 181.561px 0px;" id="ellhxos4xqprk" class="animable"></path><path d="M177.18,198.83c-3.53-.47-10.8-2.55-11.93-5.43a7.38,7.38,0,0,0,2.54,3.67c2.18,1.86,9.39,4,9.39,4Z" style="fill: rgb(242, 143, 143); transform-origin: 171.215px 197.234px 0px;" id="ell9m3218by5" class="animable"></path><path d="M178.05,176.11l-3.59,1.15a2,2,0,0,1,1.26-2.43A1.83,1.83,0,0,1,178.05,176.11Z" style="fill: rgb(38, 50, 56); transform-origin: 176.217px 176.002px 0px;" id="elisjd50egztj" class="animable"></path><path d="M176.48,190.24l5.43,1.89a2.81,2.81,0,0,1-3.6,1.84A2.87,2.87,0,0,1,176.48,190.24Z" style="fill: rgb(177, 102, 104); transform-origin: 179.105px 192.18px 0px;" id="el8i0unelxkym" class="animable"></path><path d="M190.57,176.43l-3.68-1a1.83,1.83,0,0,1,2.26-1.38A2,2,0,0,1,190.57,176.43Z" style="fill: rgb(38, 50, 56); transform-origin: 188.756px 175.209px 0px;" id="elu69wxcb62yi" class="animable"></path><path d="M183.19,180.56v8.87l4.86-1.51-4.51-7.41A.87.87,0,0,0,183.19,180.56Z" style="fill: rgb(242, 143, 143); transform-origin: 185.621px 184.971px 0px;" id="elzmdsh2uq4r" class="animable"></path><path d="M177,191.53a2.66,2.66,0,0,0-.63.09,2.84,2.84,0,0,0,2,2.35,3.11,3.11,0,0,0,1,.13,1.36,1.36,0,0,0,0-.2A2.37,2.37,0,0,0,177,191.53Z" style="fill: rgb(242, 143, 143); transform-origin: 177.873px 192.816px 0px;" id="elrfmkk23cs9o" class="animable"></path><g id="freepik--Arm--inject-38" style="transform-origin: 139.377px 244.984px 0px;" class="animable"><path d="M139.78,258.72a36,36,0,0,0,2.49,3.59,5,5,0,0,0,3,2,38.11,38.11,0,0,1,7.34,1.73c2.09.66,3.41.49,3.48,1s-.28,1.48-2.17,1.88a17.54,17.54,0,0,1-4.19,0,27.5,27.5,0,0,0,5.74,5.11c4.24,2.79,5.67,4.9,1.27,7.58-3.23,2-8.84,1.44-16.59-5.8A83.86,83.86,0,0,1,130.06,264Z" style="fill: rgb(255, 168, 167); transform-origin: 144.74px 270.664px 0px;" id="elvnptb7qs5z8" class="animable"></path><path d="M130.46,265.12c-12.47-15.55-12.8-18.27-9-23.63,20-28.24,21.07-31.53,32-34.13,4.75,8.16,1.71,17.58-2.26,22l-16.88,18c2.08,4.43,6.16,12.42,6.16,12.42A23.7,23.7,0,0,1,130.46,265.12Z" style="fill: rgb(186, 104, 200); transform-origin: 137.607px 236.24px 0px;" id="eljfno6ne3j7f" class="animable"></path><g id="el0bmcp9l895ar"><path d="M130.46,265.12c-12.47-15.55-12.8-18.27-9-23.63,20-28.24,21.07-31.53,32-34.13,4.75,8.16,1.71,17.58-2.26,22l-16.88,18c2.08,4.43,6.16,12.42,6.16,12.42A23.7,23.7,0,0,1,130.46,265.12Z" style="fill: rgb(255, 255, 255); opacity: 0.8; transform-origin: 137.607px 236.24px 0px;" class="animable"></path></g><g id="el3aql2b8a1kh"><path d="M134.28,247.37a13.12,13.12,0,0,0-5.69-4.89,7.87,7.87,0,0,1,6.81,3.69Z" style="opacity: 0.1; transform-origin: 131.994px 244.926px 0px;" class="animable"></path></g></g><g id="ele61bu2teffn"><path d="M177.46,238.53c-5.76,3-15.45,1.65-17.83-5.23,0,0-.87,6,6.48,8.1C173.91,243.63,177.46,238.53,177.46,238.53Z" style="opacity: 0.2; transform-origin: 168.529px 237.633px 0px;" class="animable"></path></g></g></g><g id="freepik--speech-bubble--inject-38" style="transform-origin: 361.59px 185.248px 0px;" class="animable"><g id="freepik--speech-bubble--inject-38" style="transform-origin: 361.59px 185.248px 0px;" class="animable"><g id="freepik--speech-bubble--inject-38" style="transform-origin: 361.59px 185.248px 0px;" class="animable"><path d="M364.6,208.55l-2.73-7.07,2.2-6.33v-3.88l-6.72,3.88V199l2.89,6.94a.44.44,0,0,0,.19.17h0Z" style="fill: rgb(186, 104, 200); transform-origin: 360.977px 199.91px 0px;" id="elsnoikipk8h8" class="animable"></path><g id="elwaqa1avil4h"><path d="M364.6,208.55l-2.73-7.07,2.2-6.33v-3.88l-6.72,3.88V199l2.89,6.94a.44.44,0,0,0,.19.17h0Z" style="opacity: 0.2; transform-origin: 360.977px 199.91px 0px;" class="animable"></path></g><path d="M376.65,166.79a4.46,4.46,0,0,0-2-3.49l-1.64-.94a4.41,4.41,0,0,0-4,0l-20.42,11.76a4.49,4.49,0,0,0-2,3.49v23.66a4.47,4.47,0,0,0,2,3.49l1.64.94a4.39,4.39,0,0,0,4,0l7.36-4.23,2.88,6.93a.43.43,0,0,0,.78-.07l3-10.73,6.37-3.66a4.48,4.48,0,0,0,2-3.49Z" style="fill: rgb(186, 104, 200); transform-origin: 361.619px 185.248px 0px;" id="el98xyk3j0yh" class="animable"></path><g id="el230qggko8tz"><path d="M346.54,201.27a4.46,4.46,0,0,0,2,3.49l1.64.94a4.53,4.53,0,0,0,3.68.17c-.95.35-1.67-.18-1.67-1.33V180.88a4.15,4.15,0,0,1,.59-2l-5.67-3.27a4.13,4.13,0,0,0-.58,2Z" style="opacity: 0.2; transform-origin: 350.195px 190.895px 0px;" class="animable"></path></g><g id="el8j71v73nzr6"><path d="M376.58,166.22c-.23-.86-1-1.13-1.94-.59L354.21,177.4a4,4,0,0,0-1.42,1.5l-5.66-3.27a4.11,4.11,0,0,1,1.42-1.5L369,162.36a4.47,4.47,0,0,1,4,0l1.64.95A4.38,4.38,0,0,1,376.58,166.22Z" style="fill: rgb(255, 255, 255); opacity: 0.5; transform-origin: 361.854px 170.393px 0px;" class="animable"></path></g></g><path d="M360.7,196.32a3.66,3.66,0,0,1-1.1-.16,3,3,0,0,1-2-3.15v-2.68A.36.36,0,0,1,358,190a.37.37,0,0,1,.38.37V193a2.3,2.3,0,0,0,1.49,2.42c2.19.68,5.8-1.44,8.05-4.74a8.5,8.5,0,0,0,1.69-4.56V183.4a.38.38,0,0,1,.75,0v2.73a9.26,9.26,0,0,1-1.82,5C366.37,194.24,363.16,196.32,360.7,196.32Z" style="fill: rgb(250, 250, 250); transform-origin: 363.973px 189.701px 0px;" id="el6j4lds5z0r" class="animable"></path><path d="M364,192.56a.23.23,0,0,1-.11,0l-9-2.8a.36.36,0,0,1-.25-.23.38.38,0,0,1,.05-.34l9-13.17a.38.38,0,0,1,.42-.15l9,2.8a.38.38,0,0,1,.24.24.35.35,0,0,1,0,.33l-9,13.18A.38.38,0,0,1,364,192.56Zm-8.39-3.38,8.24,2.57,8.54-12.53-8.23-2.57Z" style="fill: rgb(250, 250, 250); transform-origin: 364.006px 184.211px 0px;" id="elllk3bq4bpgn" class="animable"></path><path d="M372.51,189.39a.7.7,0,0,1-.53-.22.82.82,0,0,1-.2-.57l.53-2.55a.41.41,0,0,1,.2-.26.37.37,0,0,1,.25,0,.47.47,0,0,0,.23-.19.39.39,0,0,1,.38-.18.38.38,0,0,1,.31.27l.5,1.88a.34.34,0,0,1,0,.1A2,2,0,0,1,372.51,189.39Zm.48-2.91-.47,2.19a2.58,2.58,0,0,0,.46-.26,1.22,1.22,0,0,0,.46-.73l-.33-1.25Z" style="fill: rgb(250, 250, 250); transform-origin: 372.982px 187.404px 0px;" id="elwqgilye66r" class="animable"></path><path d="M372.83,185.58a.61.61,0,0,1-.3-.08.86.86,0,0,1-.37-.77,1.54,1.54,0,0,1,.64-1.28.61.61,0,0,1,.64,0,.82.82,0,0,1,.37.77,1.52,1.52,0,0,1-.64,1.27A.63.63,0,0,1,372.83,185.58Zm.11-.7h0Zm.12-.65a1,1,0,0,0-.15.48A1,1,0,0,0,373.06,184.23Z" style="fill: rgb(250, 250, 250); transform-origin: 372.984px 184.469px 0px;" id="ell5c4njylop8" class="animable"></path><path d="M363.9,184.13a.38.38,0,0,1-.17-.71l9.08-4.74a.37.37,0,0,1,.54.33v4.6a.37.37,0,0,1-.37.38.38.38,0,0,1-.38-.38v-4l-8.52,4.46A.58.58,0,0,1,363.9,184.13Z" style="fill: rgb(250, 250, 250); transform-origin: 368.443px 181.383px 0px;" id="els6g8ias93p7" class="animable"></path></g></g><defs>     <filter id="active" height="200%">         <feMorphology in="SourceAlpha" result="DILATED" operator="dilate" radius="2"></feMorphology>                <feFlood flood-color="#32DFEC" flood-opacity="1" result="PINK"></feFlood>        <feComposite in="PINK" in2="DILATED" operator="in" result="OUTLINE"></feComposite>        <feMerge>            <feMergeNode in="OUTLINE"></feMergeNode>            <feMergeNode in="SourceGraphic"></feMergeNode>        </feMerge>    </filter>    <filter id="hover" height="200%">        <feMorphology in="SourceAlpha" result="DILATED" operator="dilate" radius="2"></feMorphology>                <feFlood flood-color="#ff0000" flood-opacity="0.5" result="PINK"></feFlood>        <feComposite in="PINK" in2="DILATED" operator="in" result="OUTLINE"></feComposite>        <feMerge>            <feMergeNode in="OUTLINE"></feMergeNode>            <feMergeNode in="SourceGraphic"></feMergeNode>        </feMerge>            <feColorMatrix type="matrix" values="0   0   0   0   0                0   1   0   0   0                0   0   0   0   0                0   0   0   1   0 "></feColorMatrix>    </filter></defs></svg>
